<svg width="295" height="295" viewBox="0 0 295 295" fill="none" xmlns="http://www.w3.org/2000/svg">
<path d="M147.5 294.5C228.686 294.5 294.5 228.686 294.5 147.5C294.5 66.3141 228.686 0.5 147.5 0.5C66.3141 0.5 0.5 66.3141 0.5 147.5C0.5 228.686 66.3141 294.5 147.5 294.5Z" stroke="#00CBF8"/>
<path d="M147.5 264.218C213.378 264.218 266.783 210.813 266.783 144.935C266.783 79.0567 213.378 25.6519 147.5 25.6519C81.6218 25.6519 28.217 79.0567 28.217 144.935C28.217 210.813 81.6218 264.218 147.5 264.218Z" fill="#00CBF8"/>
<g opacity="0.2">
<path opacity="0.2" d="M172.989 80.5981H171.367V74.0087L170 74.5381V73.1691L172.989 72.0557V80.5981Z" fill="black"/>
<path opacity="0.2" d="M181.593 76.4903C181.593 77.0014 181.52 77.5307 181.356 78.0418C181.192 78.5529 180.955 79.0093 180.645 79.4108C180.335 79.8124 179.952 80.1409 179.515 80.3965C179.077 80.652 178.567 80.7615 178.002 80.7615C177.437 80.7615 176.945 80.6338 176.507 80.3965C176.07 80.1409 175.687 79.8306 175.377 79.4108C175.067 79.0093 174.83 78.5529 174.666 78.0418C174.502 77.5307 174.411 77.0197 174.411 76.4903C174.411 75.9427 174.484 75.4134 174.648 74.884C174.794 74.3547 175.031 73.8619 175.323 73.442C175.614 73.0222 175.997 72.6754 176.434 72.4016C176.89 72.1461 177.4 72 177.984 72C178.567 72 179.096 72.1278 179.533 72.4016C179.971 72.6754 180.353 73.0222 180.645 73.442C180.937 73.8619 181.174 74.3547 181.319 74.884C181.52 75.4134 181.593 75.961 181.593 76.4903ZM179.898 76.4903C179.898 76.1983 179.861 75.8697 179.806 75.5229C179.752 75.1761 179.642 74.8475 179.497 74.5372C179.351 74.2269 179.15 73.9896 178.913 73.7888C178.676 73.5881 178.367 73.4785 178.02 73.4785C177.674 73.4785 177.382 73.5881 177.145 73.7888C176.908 73.9896 176.708 74.2452 176.562 74.5555C176.416 74.8658 176.307 75.1943 176.234 75.5412C176.161 75.888 176.143 76.1983 176.143 76.4903C176.143 76.7824 176.179 77.0927 176.252 77.4212C176.325 77.7498 176.434 78.0418 176.58 78.3339C176.726 78.6077 176.927 78.845 177.163 79.0275C177.4 79.21 177.692 79.3013 178.02 79.3013C178.348 79.3013 178.64 79.21 178.877 79.0275C179.114 78.845 179.314 78.6077 179.46 78.3339C179.606 78.0601 179.715 77.7498 179.788 77.4212C179.861 77.0927 179.898 76.7824 179.898 76.4903Z" fill="black"/>
<path opacity="0.2" d="M185.53 80.5973H183.908V74.0079L182.541 74.5373V73.1683L185.53 72.0366V80.5973Z" fill="black"/>
<path opacity="0.2" d="M194.151 76.4903C194.151 77.0014 194.078 77.5307 193.914 78.0418C193.75 78.5529 193.513 79.0093 193.204 79.4108C192.894 79.8124 192.511 80.1409 192.073 80.3965C191.636 80.652 191.126 80.7615 190.561 80.7615C189.995 80.7615 189.503 80.6338 189.066 80.3965C188.628 80.1409 188.246 79.8306 187.936 79.4108C187.626 79.0093 187.389 78.5529 187.225 78.0418C187.061 77.5307 186.97 77.0197 186.97 76.4903C186.97 75.9427 187.043 75.4134 187.207 74.884C187.353 74.3547 187.589 73.8619 187.881 73.442C188.173 73.0222 188.556 72.6754 188.993 72.4016C189.449 72.1461 189.959 72 190.542 72C191.126 72 191.654 72.1278 192.092 72.4016C192.529 72.6754 192.912 73.0222 193.204 73.442C193.495 73.8619 193.732 74.3547 193.878 74.884C194.078 75.4134 194.151 75.961 194.151 76.4903ZM192.456 76.4903C192.456 76.1983 192.42 75.8697 192.365 75.5229C192.31 75.1761 192.201 74.8475 192.055 74.5372C191.909 74.2269 191.709 73.9896 191.472 73.7888C191.235 73.5881 190.925 73.4785 190.579 73.4785C190.232 73.4785 189.941 73.5881 189.704 73.7888C189.467 73.9896 189.266 74.2452 189.121 74.5555C188.975 74.8658 188.865 75.1943 188.792 75.5412C188.72 75.888 188.701 76.1983 188.701 76.4903C188.701 76.7824 188.738 77.0927 188.811 77.4212C188.884 77.7498 188.993 78.0418 189.139 78.3339C189.285 78.6077 189.485 78.845 189.722 79.0275C189.959 79.21 190.251 79.3013 190.579 79.3013C190.907 79.3013 191.199 79.21 191.435 79.0275C191.672 78.845 191.873 78.6077 192.019 78.3339C192.165 78.0601 192.274 77.7498 192.347 77.4212C192.42 77.0927 192.456 76.7824 192.456 76.4903Z" fill="black"/>
<path opacity="0.2" d="M202.481 76.4903C202.481 77.0014 202.409 77.5307 202.244 78.0418C202.08 78.5529 201.843 79.0093 201.534 79.4108C201.224 79.8124 200.841 80.1409 200.404 80.3965C199.966 80.652 199.456 80.7615 198.891 80.7615C198.326 80.7615 197.833 80.6338 197.396 80.3965C196.959 80.1409 196.576 79.8306 196.266 79.4108C195.956 79.0093 195.719 78.5529 195.555 78.0418C195.391 77.5307 195.3 77.0197 195.3 76.4903C195.3 75.9427 195.373 75.4134 195.537 74.884C195.683 74.3547 195.92 73.8619 196.211 73.442C196.503 73.0222 196.886 72.6754 197.323 72.4016C197.779 72.1461 198.289 72 198.872 72C199.456 72 199.984 72.1278 200.422 72.4016C200.859 72.6754 201.242 73.0222 201.534 73.442C201.843 73.8619 202.062 74.3547 202.208 74.884C202.39 75.4134 202.481 75.961 202.481 76.4903ZM200.768 76.4903C200.768 76.1983 200.732 75.8697 200.677 75.5229C200.622 75.1761 200.513 74.8475 200.367 74.5372C200.221 74.2269 200.021 73.9896 199.784 73.7888C199.547 73.5881 199.237 73.4785 198.891 73.4785C198.544 73.4785 198.253 73.5881 198.016 73.7888C197.779 73.9896 197.578 74.2452 197.432 74.5555C197.287 74.8658 197.177 75.1943 197.104 75.5412C197.031 75.888 197.013 76.1983 197.013 76.4903C197.013 76.7824 197.05 77.0927 197.123 77.4212C197.195 77.7498 197.305 78.0418 197.451 78.3339C197.596 78.6077 197.797 78.845 198.034 79.0275C198.271 79.21 198.563 79.3013 198.891 79.3013C199.219 79.3013 199.51 79.21 199.747 79.0275C199.984 78.845 200.185 78.6077 200.331 78.3339C200.476 78.0601 200.586 77.7498 200.659 77.4212C200.732 77.0927 200.768 76.7824 200.768 76.4903Z" fill="black"/>
<path opacity="0.2" d="M206.419 80.5972H204.796V74.0078L203.429 74.5372V73.1682L206.419 72.0547V80.5972Z" fill="black"/>
<path opacity="0.2" d="M215.022 76.4903C215.022 77.0014 214.949 77.5307 214.785 78.0418C214.621 78.5529 214.384 79.0093 214.074 79.4108C213.764 79.8124 213.382 80.1409 212.944 80.3965C212.507 80.652 211.996 80.7615 211.431 80.7615C210.866 80.7615 210.374 80.6338 209.936 80.3965C209.499 80.1409 209.116 79.8306 208.806 79.4108C208.497 79.0093 208.26 78.5529 208.096 78.0418C207.931 77.5307 207.84 77.0197 207.84 76.4903C207.84 75.9427 207.913 75.4134 208.077 74.884C208.223 74.3547 208.46 73.8619 208.752 73.442C209.043 73.0222 209.426 72.6754 209.864 72.4016C210.319 72.1461 210.83 72 211.413 72C211.996 72 212.525 72.1278 212.962 72.4016C213.4 72.6754 213.782 73.0222 214.074 73.442C214.366 73.8619 214.603 74.3547 214.749 74.884C214.949 75.4134 215.022 75.961 215.022 76.4903ZM213.327 76.4903C213.327 76.1983 213.29 75.8697 213.236 75.5229C213.181 75.1761 213.072 74.8475 212.926 74.5372C212.78 74.2269 212.579 73.9896 212.343 73.7888C212.106 73.5881 211.796 73.4785 211.449 73.4785C211.103 73.4785 210.811 73.5881 210.574 73.7888C210.338 73.9896 210.137 74.2452 209.991 74.5555C209.845 74.8658 209.736 75.1943 209.663 75.5412C209.59 75.888 209.572 76.1983 209.572 76.4903C209.572 76.7824 209.608 77.0927 209.681 77.4212C209.754 77.7498 209.864 78.0418 210.009 78.3339C210.155 78.6077 210.356 78.845 210.593 79.0275C210.83 79.21 211.121 79.3013 211.449 79.3013C211.777 79.3013 212.069 79.21 212.306 79.0275C212.543 78.845 212.744 78.6077 212.889 78.3339C213.035 78.0601 213.145 77.7498 213.217 77.4212C213.29 77.0927 213.327 76.7824 213.327 76.4903Z" fill="black"/>
<path opacity="0.2" d="M223.352 76.4903C223.352 77.0014 223.279 77.5307 223.115 78.0418C222.951 78.5529 222.714 79.0093 222.404 79.4108C222.094 79.8124 221.711 80.1409 221.274 80.3965C220.837 80.652 220.326 80.7615 219.761 80.7615C219.196 80.7615 218.704 80.6338 218.266 80.3965C217.829 80.1409 217.446 79.8306 217.136 79.4108C216.826 79.0093 216.59 78.5529 216.425 78.0418C216.261 77.5307 216.17 77.0197 216.17 76.4903C216.17 75.9427 216.243 75.4134 216.407 74.884C216.553 74.3547 216.79 73.8619 217.082 73.442C217.373 73.0222 217.756 72.6754 218.194 72.4016C218.649 72.1461 219.16 72 219.743 72C220.326 72 220.855 72.1278 221.292 72.4016C221.73 72.6754 222.112 73.0222 222.404 73.442C222.696 73.8619 222.933 74.3547 223.079 74.884C223.261 75.4134 223.352 75.961 223.352 76.4903ZM221.639 76.4903C221.639 76.1983 221.602 75.8697 221.547 75.5229C221.493 75.1761 221.383 74.8475 221.238 74.5372C221.092 74.2269 220.891 73.9896 220.654 73.7888C220.417 73.5881 220.107 73.4785 219.761 73.4785C219.415 73.4785 219.123 73.5881 218.886 73.7888C218.649 73.9896 218.449 74.2452 218.303 74.5555C218.157 74.8658 218.048 75.1943 217.975 75.5412C217.902 75.888 217.884 76.1983 217.884 76.4903C217.884 76.7824 217.92 77.0927 217.993 77.4212C218.066 77.7498 218.175 78.0418 218.321 78.3339C218.467 78.6077 218.667 78.845 218.904 79.0275C219.141 79.21 219.433 79.3013 219.761 79.3013C220.089 79.3013 220.381 79.21 220.618 79.0275C220.855 78.845 221.055 78.6077 221.201 78.3339C221.347 78.0601 221.456 77.7498 221.529 77.4212C221.602 77.0927 221.639 76.7824 221.639 76.4903Z" fill="black"/>
<path opacity="0.2" d="M227.289 80.5972H225.667V74.0078L224.3 74.5372V73.1682L227.289 72.0547V80.5972Z" fill="black"/>
<path opacity="0.2" d="M172.989 93.2104H171.367V86.6211L170 87.1504V85.7814L172.989 84.668V93.2104Z" fill="black"/>
<path opacity="0.2" d="M181.593 89.1031C181.593 89.6142 181.52 90.1435 181.356 90.6546C181.192 91.1657 180.955 91.622 180.645 92.0236C180.335 92.4252 179.952 92.7537 179.515 93.0093C179.077 93.2648 178.567 93.3743 178.002 93.3743C177.437 93.3743 176.945 93.2466 176.507 93.0093C176.07 92.7537 175.687 92.4434 175.377 92.0236C175.067 91.622 174.83 91.1657 174.666 90.6546C174.502 90.1435 174.411 89.6324 174.411 89.1031C174.411 88.5555 174.484 88.0262 174.648 87.4968C174.794 86.9675 175.031 86.4746 175.323 86.0548C175.614 85.635 175.997 85.2882 176.434 85.0144C176.89 84.7588 177.4 84.6128 177.984 84.6128C178.567 84.6128 179.096 84.7406 179.533 85.0144C179.971 85.2882 180.353 85.635 180.645 86.0548C180.937 86.4746 181.174 86.9675 181.319 87.4968C181.52 88.0444 181.593 88.5737 181.593 89.1031ZM179.898 89.1031C179.898 88.811 179.861 88.4825 179.806 88.1357C179.752 87.7889 179.642 87.4603 179.497 87.15C179.351 86.8397 179.15 86.6024 178.913 86.4016C178.676 86.2008 178.367 86.0913 178.02 86.0913C177.674 86.0913 177.382 86.2008 177.145 86.4016C176.908 86.6024 176.708 86.858 176.562 87.1683C176.416 87.4786 176.307 87.8071 176.234 88.1539C176.161 88.5007 176.143 88.811 176.143 89.1031C176.143 89.3951 176.179 89.7054 176.252 90.034C176.325 90.3626 176.434 90.6546 176.58 90.9467C176.726 91.2205 176.927 91.4577 177.163 91.6403C177.4 91.8228 177.692 91.9141 178.02 91.9141C178.348 91.9141 178.64 91.8228 178.877 91.6403C179.114 91.4577 179.314 91.2205 179.46 90.9467C179.606 90.6729 179.715 90.3626 179.788 90.034C179.861 89.7054 179.898 89.3951 179.898 89.1031Z" fill="black"/>
<path opacity="0.2" d="M189.923 89.1031C189.923 89.6142 189.85 90.1435 189.686 90.6546C189.522 91.1657 189.285 91.622 188.975 92.0236C188.665 92.4252 188.282 92.7537 187.845 93.0093C187.407 93.2648 186.897 93.3743 186.332 93.3743C185.767 93.3743 185.275 93.2466 184.837 93.0093C184.4 92.7537 184.017 92.4434 183.707 92.0236C183.397 91.622 183.16 91.1657 182.996 90.6546C182.832 90.1435 182.741 89.6324 182.741 89.1031C182.741 88.5555 182.814 88.0262 182.978 87.4968C183.124 86.9675 183.361 86.4746 183.652 86.0548C183.944 85.635 184.327 85.2882 184.764 85.0144C185.22 84.7588 185.73 84.6128 186.314 84.6128C186.897 84.6128 187.426 84.7406 187.863 85.0144C188.3 85.2882 188.683 85.635 188.975 86.0548C189.267 86.4746 189.503 86.9675 189.649 87.4968C189.832 88.0444 189.923 88.5737 189.923 89.1031ZM188.209 89.1031C188.209 88.811 188.173 88.4825 188.118 88.1357C188.064 87.7889 187.954 87.4603 187.808 87.15C187.663 86.8397 187.462 86.6024 187.225 86.4016C186.988 86.2008 186.678 86.0913 186.332 86.0913C185.986 86.0913 185.694 86.2008 185.457 86.4016C185.22 86.6024 185.02 86.858 184.874 87.1683C184.728 87.4786 184.619 87.8071 184.546 88.1539C184.473 88.5007 184.454 88.811 184.454 89.1031C184.454 89.3951 184.491 89.7054 184.564 90.034C184.637 90.3626 184.746 90.6546 184.892 90.9467C185.038 91.2205 185.238 91.4577 185.475 91.6403C185.712 91.8228 186.004 91.9141 186.332 91.9141C186.66 91.9141 186.952 91.8228 187.189 91.6403C187.426 91.4577 187.626 91.2205 187.772 90.9467C187.918 90.6729 188.027 90.3626 188.1 90.034C188.173 89.7054 188.209 89.3951 188.209 89.1031Z" fill="black"/>
<path opacity="0.2" d="M193.86 93.2104H192.238V86.6211L190.871 87.1504V85.7814L193.86 84.668V93.2104Z" fill="black"/>
<path opacity="0.2" d="M202.481 89.1031C202.481 89.6142 202.409 90.1435 202.244 90.6546C202.08 91.1657 201.843 91.622 201.534 92.0236C201.224 92.4252 200.841 92.7537 200.404 93.0093C199.966 93.2648 199.456 93.3743 198.891 93.3743C198.326 93.3743 197.833 93.2466 197.396 93.0093C196.959 92.7537 196.576 92.4434 196.266 92.0236C195.956 91.622 195.719 91.1657 195.555 90.6546C195.391 90.1435 195.3 89.6324 195.3 89.1031C195.3 88.5555 195.373 88.0262 195.537 87.4968C195.683 86.9675 195.92 86.4746 196.211 86.0548C196.503 85.635 196.886 85.2882 197.323 85.0144C197.779 84.7588 198.289 84.6128 198.872 84.6128C199.456 84.6128 199.984 84.7406 200.422 85.0144C200.859 85.2882 201.242 85.635 201.534 86.0548C201.843 86.4746 202.062 86.9675 202.208 87.4968C202.39 88.0444 202.481 88.5737 202.481 89.1031ZM200.768 89.1031C200.768 88.811 200.732 88.4825 200.677 88.1357C200.622 87.7889 200.513 87.4603 200.367 87.15C200.221 86.8397 200.021 86.6024 199.784 86.4016C199.547 86.2008 199.237 86.0913 198.891 86.0913C198.544 86.0913 198.253 86.2008 198.016 86.4016C197.779 86.6024 197.578 86.858 197.432 87.1683C197.287 87.4786 197.177 87.8071 197.104 88.1539C197.031 88.5007 197.013 88.811 197.013 89.1031C197.013 89.3951 197.05 89.7054 197.123 90.034C197.195 90.3626 197.305 90.6546 197.451 90.9467C197.596 91.2205 197.797 91.4577 198.034 91.6403C198.271 91.8228 198.563 91.9141 198.891 91.9141C199.219 91.9141 199.51 91.8228 199.747 91.6403C199.984 91.4577 200.185 91.2205 200.331 90.9467C200.476 90.6729 200.586 90.3626 200.659 90.034C200.732 89.7054 200.768 89.3951 200.768 89.1031Z" fill="black"/>
<path opacity="0.2" d="M206.419 93.2104H204.796V86.6211L203.429 87.1504V85.7814L206.419 84.668V93.2104Z" fill="black"/>
<path opacity="0.2" d="M215.022 89.1031C215.022 89.6142 214.949 90.1435 214.785 90.6546C214.621 91.1657 214.384 91.622 214.074 92.0236C213.764 92.4252 213.382 92.7537 212.944 93.0093C212.507 93.2648 211.996 93.3743 211.431 93.3743C210.866 93.3743 210.374 93.2466 209.936 93.0093C209.499 92.7537 209.116 92.4434 208.806 92.0236C208.497 91.622 208.26 91.1657 208.096 90.6546C207.931 90.1435 207.84 89.6324 207.84 89.1031C207.84 88.5555 207.913 88.0262 208.077 87.4968C208.223 86.9675 208.46 86.4746 208.752 86.0548C209.043 85.635 209.426 85.2882 209.864 85.0144C210.319 84.7588 210.83 84.6128 211.413 84.6128C211.996 84.6128 212.525 84.7406 212.962 85.0144C213.4 85.2882 213.782 85.635 214.074 86.0548C214.366 86.4746 214.603 86.9675 214.749 87.4968C214.949 88.0444 215.022 88.5737 215.022 89.1031ZM213.327 89.1031C213.327 88.811 213.29 88.4825 213.236 88.1357C213.181 87.7889 213.072 87.4603 212.926 87.15C212.78 86.8397 212.579 86.6024 212.343 86.4016C212.106 86.2008 211.796 86.0913 211.449 86.0913C211.103 86.0913 210.811 86.2008 210.574 86.4016C210.338 86.6024 210.137 86.858 209.991 87.1683C209.845 87.4786 209.736 87.8071 209.663 88.1539C209.59 88.5007 209.572 88.811 209.572 89.1031C209.572 89.3951 209.608 89.7054 209.681 90.034C209.754 90.3626 209.864 90.6546 210.009 90.9467C210.155 91.2205 210.356 91.4577 210.593 91.6403C210.83 91.8228 211.121 91.9141 211.449 91.9141C211.777 91.9141 212.069 91.8228 212.306 91.6403C212.543 91.4577 212.744 91.2205 212.889 90.9467C213.035 90.6729 213.145 90.3626 213.217 90.034C213.29 89.7054 213.327 89.3951 213.327 89.1031Z" fill="black"/>
<path opacity="0.2" d="M223.352 89.1031C223.352 89.6142 223.279 90.1435 223.115 90.6546C222.951 91.1657 222.714 91.622 222.404 92.0236C222.094 92.4252 221.711 92.7537 221.274 93.0093C220.837 93.2648 220.326 93.3743 219.761 93.3743C219.196 93.3743 218.704 93.2466 218.266 93.0093C217.829 92.7537 217.446 92.4434 217.136 92.0236C216.826 91.622 216.59 91.1657 216.425 90.6546C216.261 90.1435 216.17 89.6324 216.17 89.1031C216.17 88.5555 216.243 88.0262 216.407 87.4968C216.553 86.9675 216.79 86.4746 217.082 86.0548C217.373 85.635 217.756 85.2882 218.194 85.0144C218.649 84.7588 219.16 84.6128 219.743 84.6128C220.326 84.6128 220.855 84.7406 221.292 85.0144C221.73 85.2882 222.112 85.635 222.404 86.0548C222.696 86.4746 222.933 86.9675 223.079 87.4968C223.261 88.0444 223.352 88.5737 223.352 89.1031ZM221.639 89.1031C221.639 88.811 221.602 88.4825 221.547 88.1357C221.493 87.7889 221.383 87.4603 221.238 87.15C221.092 86.8397 220.891 86.6024 220.654 86.4016C220.417 86.2008 220.107 86.0913 219.761 86.0913C219.415 86.0913 219.123 86.2008 218.886 86.4016C218.649 86.6024 218.449 86.858 218.303 87.1683C218.157 87.4786 218.048 87.8071 217.975 88.1539C217.902 88.5007 217.884 88.811 217.884 89.1031C217.884 89.3951 217.92 89.7054 217.993 90.034C218.066 90.3626 218.175 90.6546 218.321 90.9467C218.467 91.2205 218.667 91.4577 218.904 91.6403C219.141 91.8228 219.433 91.9141 219.761 91.9141C220.089 91.9141 220.381 91.8228 220.618 91.6403C220.855 91.4577 221.055 91.2205 221.201 90.9467C221.347 90.6729 221.456 90.3626 221.529 90.034C221.602 89.7054 221.639 89.3951 221.639 89.1031Z" fill="black"/>
<path opacity="0.2" d="M227.289 93.2104H225.667V86.6211L224.3 87.1504V85.7814L227.289 84.668V93.2104Z" fill="black"/>
<path opacity="0.2" d="M172.989 105.823H171.367V99.2339L170 99.7632V98.3942L172.989 97.2808V105.823Z" fill="black"/>
<path opacity="0.2" d="M177.309 105.823H175.687V99.2339L174.32 99.7632V98.3942L177.309 97.2808V105.823Z" fill="black"/>
<path opacity="0.2" d="M185.931 101.716C185.931 102.227 185.858 102.757 185.694 103.268C185.53 103.779 185.293 104.235 184.983 104.637C184.673 105.038 184.29 105.367 183.853 105.622C183.415 105.878 182.905 105.987 182.34 105.987C181.775 105.987 181.283 105.86 180.845 105.622C180.408 105.367 180.025 105.056 179.715 104.637C179.405 104.235 179.168 103.779 179.004 103.268C178.84 102.757 178.749 102.245 178.749 101.716C178.749 101.169 178.822 100.639 178.986 100.11C179.132 99.5808 179.369 99.088 179.661 98.6681C179.952 98.2483 180.335 97.9015 180.772 97.6277C181.228 97.3722 181.738 97.2261 182.322 97.2261C182.905 97.2261 183.434 97.3539 183.871 97.6277C184.309 97.9015 184.691 98.2483 184.983 98.6681C185.275 99.088 185.512 99.5808 185.657 100.11C185.858 100.657 185.931 101.187 185.931 101.716ZM184.217 101.716C184.217 101.424 184.181 101.095 184.126 100.749C184.072 100.402 183.962 100.073 183.816 99.7633C183.671 99.453 183.47 99.2157 183.233 99.0149C182.996 98.8142 182.686 98.7046 182.34 98.7046C181.994 98.7046 181.702 98.8142 181.465 99.0149C181.228 99.2157 181.028 99.4713 180.882 99.7816C180.736 100.092 180.627 100.42 180.554 100.767C180.481 101.114 180.463 101.424 180.463 101.716C180.463 102.008 180.499 102.318 180.572 102.647C180.645 102.976 180.754 103.268 180.9 103.56C181.046 103.833 181.246 104.071 181.483 104.253C181.72 104.436 182.012 104.527 182.34 104.527C182.668 104.527 182.96 104.436 183.197 104.253C183.434 104.071 183.634 103.833 183.78 103.56C183.926 103.286 184.035 102.976 184.108 102.647C184.199 102.318 184.217 102.008 184.217 101.716Z" fill="black"/>
<path opacity="0.2" d="M194.243 101.716C194.243 102.227 194.17 102.757 194.006 103.268C193.842 103.779 193.605 104.235 193.295 104.637C192.985 105.038 192.602 105.367 192.165 105.622C191.727 105.878 191.217 105.987 190.652 105.987C190.087 105.987 189.595 105.86 189.157 105.622C188.72 105.367 188.337 105.056 188.027 104.637C187.717 104.235 187.48 103.779 187.316 103.268C187.152 102.757 187.061 102.245 187.061 101.716C187.061 101.169 187.134 100.639 187.298 100.11C187.444 99.5808 187.681 99.088 187.972 98.6681C188.264 98.2483 188.647 97.9015 189.084 97.6277C189.54 97.3722 190.05 97.2261 190.634 97.2261C191.217 97.2261 191.745 97.3539 192.183 97.6277C192.62 97.9015 193.003 98.2483 193.295 98.6681C193.586 99.088 193.823 99.5808 193.969 100.11C194.17 100.657 194.243 101.187 194.243 101.716ZM192.547 101.716C192.547 101.424 192.511 101.095 192.456 100.749C192.402 100.402 192.292 100.073 192.146 99.7633C192.001 99.453 191.8 99.2157 191.563 99.0149C191.326 98.8142 191.016 98.7046 190.67 98.7046C190.324 98.7046 190.032 98.8142 189.795 99.0149C189.558 99.2157 189.358 99.4713 189.212 99.7816C189.066 100.092 188.957 100.42 188.884 100.767C188.811 101.114 188.793 101.424 188.793 101.716C188.793 102.008 188.829 102.318 188.902 102.647C188.975 102.976 189.084 103.268 189.23 103.56C189.376 103.833 189.576 104.071 189.813 104.253C190.05 104.436 190.342 104.527 190.67 104.527C190.998 104.527 191.29 104.436 191.527 104.253C191.764 104.071 191.964 103.833 192.11 103.56C192.256 103.286 192.365 102.976 192.438 102.647C192.511 102.318 192.547 102.008 192.547 101.716Z" fill="black"/>
<path opacity="0.2" d="M198.18 105.823H196.557V99.2339L195.19 99.7632V98.3942L198.18 97.2808V105.823Z" fill="black"/>
<path opacity="0.2" d="M202.5 105.823H200.878V99.2339L199.51 99.7632V98.3942L202.5 97.2808V105.823Z" fill="black"/>
<path opacity="0.2" d="M206.838 105.823H205.216V99.2339L203.849 99.7632V98.3942L206.838 97.2808V105.823Z" fill="black"/>
<path opacity="0.2" d="M215.441 101.716C215.441 102.227 215.368 102.757 215.204 103.268C215.04 103.779 214.803 104.235 214.493 104.637C214.184 105.038 213.801 105.367 213.363 105.622C212.926 105.878 212.416 105.987 211.85 105.987C211.285 105.987 210.793 105.86 210.356 105.622C209.918 105.367 209.536 105.056 209.226 104.637C208.916 104.235 208.679 103.779 208.515 103.268C208.351 102.757 208.26 102.245 208.26 101.716C208.26 101.169 208.333 100.639 208.497 100.11C208.642 99.5808 208.879 99.088 209.171 98.6681C209.463 98.2483 209.845 97.9015 210.283 97.6277C210.739 97.3722 211.249 97.2261 211.832 97.2261C212.416 97.2261 212.944 97.3539 213.382 97.6277C213.819 97.9015 214.202 98.2483 214.493 98.6681C214.785 99.088 215.022 99.5808 215.168 100.11C215.368 100.657 215.441 101.187 215.441 101.716ZM213.746 101.716C213.746 101.424 213.71 101.095 213.655 100.749C213.6 100.402 213.491 100.073 213.345 99.7633C213.199 99.453 212.999 99.2157 212.762 99.0149C212.525 98.8142 212.215 98.7046 211.869 98.7046C211.522 98.7046 211.231 98.8142 210.994 99.0149C210.757 99.2157 210.556 99.4713 210.41 99.7816C210.265 100.092 210.155 100.42 210.082 100.767C210.009 101.114 209.991 101.424 209.991 101.716C209.991 102.008 210.028 102.318 210.101 102.647C210.174 102.976 210.283 103.268 210.429 103.56C210.575 103.833 210.775 104.071 211.012 104.253C211.249 104.436 211.541 104.527 211.869 104.527C212.197 104.527 212.488 104.436 212.725 104.253C212.962 104.071 213.163 103.833 213.309 103.56C213.454 103.286 213.564 102.976 213.637 102.647C213.71 102.318 213.746 102.008 213.746 101.716Z" fill="black"/>
<path opacity="0.2" d="M219.378 105.823H217.756V99.2339L216.389 99.7632V98.3942L219.378 97.2808V105.823Z" fill="black"/>
<path opacity="0.2" d="M228 101.716C228 102.227 227.927 102.757 227.763 103.268C227.599 103.779 227.362 104.235 227.052 104.637C226.742 105.038 226.36 105.367 225.922 105.622C225.485 105.878 224.974 105.987 224.409 105.987C223.844 105.987 223.352 105.86 222.915 105.622C222.477 105.367 222.094 105.056 221.784 104.637C221.475 104.235 221.238 103.779 221.074 103.268C220.91 102.757 220.818 102.245 220.818 101.716C220.818 101.169 220.891 100.639 221.055 100.11C221.201 99.5808 221.438 99.088 221.73 98.6681C222.021 98.2483 222.404 97.9015 222.842 97.6277C223.297 97.3722 223.808 97.2261 224.391 97.2261C224.974 97.2261 225.503 97.3539 225.94 97.6277C226.378 97.9015 226.761 98.2483 227.052 98.6681C227.344 99.088 227.581 99.5808 227.727 100.11C227.927 100.657 228 101.187 228 101.716ZM226.305 101.716C226.305 101.424 226.268 101.095 226.214 100.749C226.159 100.402 226.05 100.073 225.904 99.7633C225.758 99.453 225.558 99.2157 225.321 99.0149C225.084 98.8142 224.774 98.7046 224.427 98.7046C224.081 98.7046 223.789 98.8142 223.552 99.0149C223.316 99.2157 223.115 99.4713 222.969 99.7816C222.823 100.092 222.714 100.42 222.641 100.767C222.568 101.114 222.55 101.424 222.55 101.716C222.55 102.008 222.586 102.318 222.659 102.647C222.732 102.976 222.842 103.268 222.987 103.56C223.133 103.833 223.334 104.071 223.571 104.253C223.808 104.436 224.099 104.527 224.427 104.527C224.756 104.527 225.047 104.436 225.284 104.253C225.521 104.071 225.722 103.833 225.867 103.56C226.013 103.286 226.123 102.976 226.195 102.647C226.268 102.318 226.305 102.008 226.305 101.716Z" fill="black"/>
</g>
<path d="M178 45H50.063H44V57H178V45Z" fill="#F3F4F7"/>
<path d="M51.3708 171.109H43.949V57.9019H177.355V171.109H51.3708Z" stroke="black"/>
<path d="M185.803 45.4233H177.855V57.3756H185.803V45.4233Z" fill="#F3F4F7"/>
<path d="M186.226 172.032H177.433V56.9521H186.226V172.032ZM178.278 171.16H185.354V57.8247H178.278V171.16Z" fill="black"/>
<mask id="path-35-inside-1_331_1117" fill="white">
<path d="M178.278 172.032H43V56.9521H178.278V172.032ZM43.8714 171.16H177.433V57.8247H43.8714V171.16Z"/>
</mask>
<path d="M178.278 172.032V173.032H179.278V172.032H178.278ZM43 172.032H42V173.032H43V172.032ZM43 56.9521V55.9521H42V56.9521H43ZM178.278 56.9521H179.278V55.9521H178.278V56.9521ZM43.8714 171.16H42.8714V172.16H43.8714V171.16ZM177.433 171.16V172.16H178.433V171.16H177.433ZM177.433 57.8247H178.433V56.8247H177.433V57.8247ZM43.8714 57.8247V56.8247H42.8714V57.8247H43.8714ZM178.278 171.032H43V173.032H178.278V171.032ZM44 172.032V56.9521H42V172.032H44ZM43 57.9521H178.278V55.9521H43V57.9521ZM177.278 56.9521V172.032H179.278V56.9521H177.278ZM43.8714 172.16H177.433V170.16H43.8714V172.16ZM178.433 171.16V57.8247H176.433V171.16H178.433ZM177.433 56.8247H43.8714V58.8247H177.433V56.8247ZM42.8714 57.8247V171.16H44.8714V57.8247H42.8714Z" fill="black" mask="url(#path-35-inside-1_331_1117)"/>
<mask id="path-37-inside-2_331_1117" fill="white">
<path d="M186.226 57.8249H177.433V45H186.226V57.8249ZM178.278 56.9523H185.354V45.8462H178.278V56.9523Z"/>
</mask>
<path d="M186.226 57.8249V58.8249H187.226V57.8249H186.226ZM177.433 57.8249H176.433V58.8249H177.433V57.8249ZM177.433 45V44H176.433V45H177.433ZM186.226 45H187.226V44H186.226V45ZM178.278 56.9523H177.278V57.9523H178.278V56.9523ZM185.354 56.9523V57.9523H186.354V56.9523H185.354ZM185.354 45.8462H186.354V44.8462H185.354V45.8462ZM178.278 45.8462V44.8462H177.278V45.8462H178.278ZM186.226 56.8249H177.433V58.8249H186.226V56.8249ZM178.433 57.8249V45H176.433V57.8249H178.433ZM177.433 46H186.226V44H177.433V46ZM185.226 45V57.8249H187.226V45H185.226ZM178.278 57.9523H185.354V55.9523H178.278V57.9523ZM186.354 56.9523V45.8462H184.354V56.9523H186.354ZM185.354 44.8462H178.278V46.8462H185.354V44.8462ZM177.278 45.8462V56.9523H179.278V45.8462H177.278Z" fill="black" mask="url(#path-37-inside-2_331_1117)"/>
<mask id="path-39-inside-3_331_1117" fill="white">
<path d="M178.278 57.8249H43V45H178.278V57.8249ZM43.8714 56.9523H177.433V45.8462H43.8714V56.9523Z"/>
</mask>
<path d="M178.278 57.8249V58.8249H179.278V57.8249H178.278ZM43 57.8249H42V58.8249H43V57.8249ZM43 45V44H42V45H43ZM178.278 45H179.278V44H178.278V45ZM43.8714 56.9523H42.8714V57.9523H43.8714V56.9523ZM177.433 56.9523V57.9523H178.433V56.9523H177.433ZM177.433 45.8462H178.433V44.8462H177.433V45.8462ZM43.8714 45.8462V44.8462H42.8714V45.8462H43.8714ZM178.278 56.8249H43V58.8249H178.278V56.8249ZM44 57.8249V45H42V57.8249H44ZM43 46H178.278V44H43V46ZM177.278 45V57.8249H179.278V45H177.278ZM43.8714 57.9523H177.433V55.9523H43.8714V57.9523ZM178.433 56.9523V45.8462H176.433V56.9523H178.433ZM177.433 44.8462H43.8714V46.8462H177.433V44.8462ZM42.8714 45.8462V56.9523H44.8714V45.8462H42.8714Z" fill="black" mask="url(#path-39-inside-3_331_1117)"/>
<path d="M178.5 171.5V57.5H185.5V171.5H178.5Z" stroke="black"/>
<path d="M54.635 51.4503C54.6571 50.0338 53.5283 48.8676 52.1139 48.8455C50.6994 48.8234 49.5349 49.9537 49.5128 51.3702C49.4907 52.7866 50.6194 53.9528 52.0339 53.9749C53.4484 53.9971 54.6129 52.8667 54.635 51.4503Z" fill="white"/>
<mask id="path-43-inside-4_331_1117" fill="white">
<path d="M52.0836 54.3873C50.4464 54.3873 49.0997 53.0387 49.0997 51.3992C49.0997 49.7597 50.4464 48.4111 52.0836 48.4111C53.7208 48.4111 55.0675 49.7597 55.0675 51.3992C55.0675 53.0651 53.7208 54.3873 52.0836 54.3873ZM52.0836 49.2838C50.9217 49.2838 49.9711 50.2357 49.9711 51.3992C49.9711 52.5627 50.9217 53.5146 52.0836 53.5146C53.2455 53.5146 54.1961 52.5627 54.1961 51.3992C54.1961 50.2357 53.2455 49.2838 52.0836 49.2838Z"/>
</mask>
<path d="M52.0836 53.3873C51 53.3873 50.0997 52.4878 50.0997 51.3992H48.0997C48.0997 53.5897 49.8928 55.3873 52.0836 55.3873V53.3873ZM50.0997 51.3992C50.0997 50.3107 51 49.4111 52.0836 49.4111V47.4111C49.8928 47.4111 48.0997 49.2088 48.0997 51.3992H50.0997ZM52.0836 49.4111C53.1672 49.4111 54.0675 50.3107 54.0675 51.3992H56.0675C56.0675 49.2088 54.2744 47.4111 52.0836 47.4111V49.4111ZM54.0675 51.3992C54.0675 52.5084 53.173 53.3873 52.0836 53.3873V55.3873C54.2686 55.3873 56.0675 53.6218 56.0675 51.3992H54.0675ZM52.0836 48.2838C50.3681 48.2838 48.9711 49.6847 48.9711 51.3992H50.9711C50.9711 50.7867 51.4753 50.2838 52.0836 50.2838V48.2838ZM48.9711 51.3992C48.9711 53.1137 50.3681 54.5146 52.0836 54.5146V52.5146C51.4753 52.5146 50.9711 52.0117 50.9711 51.3992H48.9711ZM52.0836 54.5146C53.7991 54.5146 55.1961 53.1137 55.1961 51.3992H53.1961C53.1961 52.0117 52.6919 52.5146 52.0836 52.5146V54.5146ZM55.1961 51.3992C55.1961 49.6847 53.7991 48.2838 52.0836 48.2838V50.2838C52.6919 50.2838 53.1961 50.7867 53.1961 51.3992H55.1961Z" fill="black" mask="url(#path-43-inside-4_331_1117)"/>
<path d="M61.4984 51.4476C61.522 50.0312 60.3944 48.8638 58.9799 48.8402C57.5655 48.8166 56.3997 49.9457 56.3762 51.3622C56.3526 52.7786 57.4801 53.946 58.8946 53.9696C60.3091 53.9932 61.4748 52.8641 61.4984 51.4476Z" fill="white"/>
<mask id="path-46-inside-5_331_1117" fill="white">
<path d="M58.9492 54.3873C57.312 54.3873 55.9653 53.0387 55.9653 51.3992C55.9653 49.7597 57.312 48.4111 58.9492 48.4111C60.5864 48.4111 61.9331 49.7597 61.9331 51.3992C61.9331 53.0651 60.5864 54.3873 58.9492 54.3873ZM58.9492 49.2838C57.7873 49.2838 56.8367 50.2357 56.8367 51.3992C56.8367 52.5627 57.7873 53.5146 58.9492 53.5146C60.1111 53.5146 61.0617 52.5627 61.0617 51.3992C61.0617 50.2357 60.1111 49.2838 58.9492 49.2838Z"/>
</mask>
<path d="M58.9492 53.3873C57.8656 53.3873 56.9653 52.4878 56.9653 51.3992H54.9653C54.9653 53.5897 56.7584 55.3873 58.9492 55.3873V53.3873ZM56.9653 51.3992C56.9653 50.3107 57.8656 49.4111 58.9492 49.4111V47.4111C56.7584 47.4111 54.9653 49.2088 54.9653 51.3992H56.9653ZM58.9492 49.4111C60.0328 49.4111 60.9331 50.3107 60.9331 51.3992H62.9331C62.9331 49.2088 61.14 47.4111 58.9492 47.4111V49.4111ZM60.9331 51.3992C60.9331 52.5084 60.0386 53.3873 58.9492 53.3873V55.3873C61.1342 55.3873 62.9331 53.6218 62.9331 51.3992H60.9331ZM58.9492 48.2838C57.2337 48.2838 55.8367 49.6847 55.8367 51.3992H57.8367C57.8367 50.7867 58.3409 50.2838 58.9492 50.2838V48.2838ZM55.8367 51.3992C55.8367 53.1137 57.2337 54.5146 58.9492 54.5146V52.5146C58.3409 52.5146 57.8367 52.0117 57.8367 51.3992H55.8367ZM58.9492 54.5146C60.6647 54.5146 62.0617 53.1137 62.0617 51.3992H60.0617C60.0617 52.0117 59.5575 52.5146 58.9492 52.5146V54.5146ZM62.0617 51.3992C62.0617 49.6847 60.6647 48.2838 58.9492 48.2838V50.2838C59.5575 50.2838 60.0617 50.7867 60.0617 51.3992H62.0617Z" fill="black" mask="url(#path-46-inside-5_331_1117)"/>
<path d="M68.36 51.4437C68.3814 50.0272 67.2521 48.8615 65.8377 48.8401C64.4232 48.8186 63.2592 49.9495 63.2378 51.366C63.2163 52.7824 64.3456 53.9481 65.7601 53.9695C67.1746 53.991 68.3386 52.8601 68.36 51.4437Z" fill="white"/>
<mask id="path-49-inside-6_331_1117" fill="white">
<path d="M65.8147 54.3873C64.1775 54.3873 62.8308 53.0387 62.8308 51.3992C62.8308 49.7597 64.1775 48.4111 65.8147 48.4111C67.4518 48.4111 68.7985 49.7597 68.7985 51.3992C68.7985 53.0651 67.4518 54.3873 65.8147 54.3873ZM65.8147 49.2838C64.6528 49.2838 63.7022 50.2357 63.7022 51.3992C63.7022 52.5627 64.6528 53.5146 65.8147 53.5146C66.9765 53.5146 67.9271 52.5627 67.9271 51.3992C67.9271 50.2357 66.9765 49.2838 65.8147 49.2838Z"/>
</mask>
<path d="M65.8147 53.3873C64.7311 53.3873 63.8308 52.4878 63.8308 51.3992H61.8308C61.8308 53.5897 63.6239 55.3873 65.8147 55.3873V53.3873ZM63.8308 51.3992C63.8308 50.3107 64.7311 49.4111 65.8147 49.4111V47.4111C63.6239 47.4111 61.8308 49.2088 61.8308 51.3992H63.8308ZM65.8147 49.4111C66.8982 49.4111 67.7985 50.3107 67.7985 51.3992H69.7985C69.7985 49.2088 68.0054 47.4111 65.8147 47.4111V49.4111ZM67.7985 51.3992C67.7985 52.5084 66.9039 53.3873 65.8147 53.3873V55.3873C67.9997 55.3873 69.7985 53.6218 69.7985 51.3992H67.7985ZM65.8147 48.2838C64.0992 48.2838 62.7022 49.6847 62.7022 51.3992H64.7022C64.7022 50.7867 65.2064 50.2838 65.8147 50.2838V48.2838ZM62.7022 51.3992C62.7022 53.1137 64.0992 54.5146 65.8147 54.5146V52.5146C65.2064 52.5146 64.7022 52.0117 64.7022 51.3992H62.7022ZM65.8147 54.5146C67.5301 54.5146 68.9271 53.1137 68.9271 51.3992H66.9271C66.9271 52.0118 66.4229 52.5146 65.8147 52.5146V54.5146ZM68.9271 51.3992C68.9271 49.6848 67.5301 48.2838 65.8147 48.2838V50.2838C66.4229 50.2838 66.9271 50.7867 66.9271 51.3992H68.9271Z" fill="black" mask="url(#path-49-inside-6_331_1117)"/>
<path d="M51.2634 68.9864V66.5488H96.3154V68.9864H51.2634Z" fill="#EAEAEA" stroke="black"/>
<path d="M107.563 71.7075H61.5107V75.145H107.563V71.7075Z" fill="#EAEAEA"/>
<path d="M85.4081 77.3662H61.5107V80.8038H85.4081V77.3662Z" fill="#EAEAEA"/>
<path d="M96.0761 83.0249H61.5107V86.4625H96.0761V83.0249Z" fill="#EAEAEA"/>
<path d="M115.801 83.0249H98.5052V86.4625H115.801V83.0249Z" fill="#EAEAEA"/>
<path d="M135.817 83.0249H118.521V86.4625H135.817V83.0249Z" fill="#EAEAEA"/>
<path d="M98.5053 88.6841H73.7629V92.1217H98.5053V88.6841Z" fill="#EAEAEA"/>
<path d="M141.97 88.6841H101.172V92.1217H141.97V88.6841Z" fill="#EAEAEA"/>
<path d="M89.6857 94.3428H73.7629V97.7804H89.6857V94.3428Z" fill="#EAEAEA"/>
<path d="M108.249 94.3428H92.3264V97.7804H108.249V94.3428Z" fill="#EAEAEA"/>
<path d="M98.5053 100.002H73.7629V103.439H98.5053V100.002Z" fill="#EAEAEA"/>
<path d="M139.118 100.002H114.375V103.439H139.118V100.002Z" fill="#EAEAEA"/>
<path d="M112.078 100.002H101.172V103.439H112.078V100.002Z" fill="#EAEAEA"/>
<path d="M96.8154 105.634H50.7634V109.072H96.8154V105.634Z" fill="#EAEAEA"/>
<path d="M72.1259 111.293H61.5107V114.73H72.1259V111.293Z" fill="#EAEAEA"/>
<path d="M79.4404 116.952H61.5107V120.389H79.4404V116.952Z" fill="#EAEAEA"/>
<path d="M91.9038 116.952H81.7375V120.389H91.9038V116.952Z" fill="#EAEAEA"/>
<path d="M109.385 116.952H93.6731V120.389H109.385V116.952Z" fill="#EAEAEA"/>
<path d="M97.1058 122.61H73.7629V126.048H97.1058V122.61Z" fill="#EAEAEA"/>
<path d="M112.052 122.61H99.6936V126.048H112.052V122.61Z" fill="#EAEAEA"/>
<path d="M126.733 122.61H114.375V126.048H126.733V122.61Z" fill="#EAEAEA"/>
<path d="M103.443 128.269H73.7629V131.707H103.443V128.269Z" fill="#EAEAEA"/>
<path d="M122.587 128.269H106.163V131.707H122.587V128.269Z" fill="#EAEAEA"/>
<path d="M132.859 128.269H124.647V131.707H132.859V128.269Z" fill="#EAEAEA"/>
<path d="M90.0026 133.928H73.7629V137.366H90.0026V133.928Z" fill="#EAEAEA"/>
<path d="M114.349 133.928H92.1678V137.366H114.349V133.928Z" fill="#EAEAEA"/>
<path d="M98.5053 139.587H73.7629V143.024H98.5053V139.587Z" fill="#EAEAEA"/>
<path d="M116.488 139.587H101.172V143.024H116.488V139.587Z" fill="#EAEAEA"/>
<path d="M133.546 139.587H118.231V143.024H133.546V139.587Z" fill="#EAEAEA"/>
<path d="M106.612 145.246H73.7629V148.683H106.612V145.246Z" fill="#EAEAEA"/>
<path d="M81.896 150.904H73.7629V154.342H81.896V150.904Z" fill="#EAEAEA"/>
<path d="M108.83 150.904H84.0613V154.342H108.83V150.904Z" fill="#EAEAEA"/>
<path d="M119.234 150.904H111.154V154.342H119.234V150.904Z" fill="#EAEAEA"/>
<path d="M142.788 150.904H121.848V154.342H142.788V150.904Z" fill="#EAEAEA"/>
<path d="M98.9278 156.563H73.7629V160.001H98.9278V156.563Z" fill="#EAEAEA"/>
<path d="M111.154 156.563H101.172V160.001H111.154V156.563Z" fill="#EAEAEA"/>
<path d="M109.543 230.187L111.156 231.828C111.471 232.148 111.909 232.315 112.357 232.285L114.653 232.129L113.011 233.742C112.691 234.056 112.525 234.494 112.555 234.942L112.711 237.238L111.098 235.596C110.783 235.277 110.345 235.11 109.897 235.14L107.601 235.296L109.243 233.683C109.563 233.369 109.73 232.93 109.699 232.483L109.543 230.187Z" stroke="#262626" stroke-width="0.5" stroke-linejoin="round"/>
<path d="M111.387 193.419L113.851 195.928C114.331 196.416 115.001 196.671 115.685 196.625L119.193 196.387L116.684 198.851C116.196 199.331 115.941 200.001 115.987 200.685L116.226 204.193L113.761 201.684C113.281 201.196 112.611 200.941 111.928 200.987L108.419 201.226L110.928 198.761C111.416 198.281 111.671 197.611 111.625 196.928L111.387 193.419Z" stroke="#262626" stroke-width="0.6" stroke-linejoin="round"/>
<path d="M73.4137 182.54L71.7348 197.053C71.6511 197.777 71.2549 198.43 70.6499 198.838L73.4137 182.54ZM73.4137 182.54L81.5864 194.65C81.5864 194.65 81.5864 194.65 81.5865 194.65C81.9946 195.255 82.6466 195.651 83.3715 195.735L97.8847 197.414L85.7746 205.586C85.1695 205.994 84.7732 206.647 84.6894 207.372C84.6894 207.372 84.6894 207.372 84.6894 207.372L83.0105 221.884L74.8378 209.775C74.8378 209.774 74.8378 209.774 74.8377 209.774C74.4296 209.169 73.7776 208.773 73.0528 208.689C73.0527 208.689 73.0527 208.689 73.0527 208.689L58.5395 207.011M73.4137 182.54L58.5395 207.011M58.5395 207.011L70.6496 198.838L58.5395 207.011Z" stroke="black"/>
<path d="M135.371 119.95H261.329V130.902H129.85V119.95H135.371Z" stroke="black"/>
<path d="M129.35 119.45H127.422V131.402H129.35V119.45Z" fill="white"/>
<path d="M269.777 131.402H261.829V245.609H269.777V131.402Z" fill="#F3F4F7"/>
<path d="M135.371 245.109H127.922V131.902H261.329V245.109H135.371Z" stroke="black"/>
<path d="M269.777 119.45H261.829V131.402H269.777V119.45Z" fill="#F3F4F7"/>
<mask id="path-95-inside-7_331_1117" fill="white">
<path d="M270.199 246.059H261.406V130.979H270.199V246.059ZM262.278 245.186H269.354V131.825H262.278V245.186Z"/>
</mask>
<path d="M270.199 246.059V247.059H271.199V246.059H270.199ZM261.406 246.059H260.406V247.059H261.406V246.059ZM261.406 130.979V129.979H260.406V130.979H261.406ZM270.199 130.979H271.199V129.979H270.199V130.979ZM262.278 245.186H261.278V246.186H262.278V245.186ZM269.354 245.186V246.186H270.354V245.186H269.354ZM269.354 131.825H270.354V130.825H269.354V131.825ZM262.278 131.825V130.825H261.278V131.825H262.278ZM270.199 245.059H261.406V247.059H270.199V245.059ZM262.406 246.059V130.979H260.406V246.059H262.406ZM261.406 131.979H270.199V129.979H261.406V131.979ZM269.199 130.979V246.059H271.199V130.979H269.199ZM262.278 246.186H269.354V244.186H262.278V246.186ZM270.354 245.186V131.825H268.354V245.186H270.354ZM269.354 130.825H262.278V132.825H269.354V130.825ZM261.278 131.825V245.186H263.278V131.825H261.278Z" fill="black" mask="url(#path-95-inside-7_331_1117)"/>
<path d="M262.278 246.059H127V130.979H262.278V246.059ZM127.845 245.186H261.406V131.825H127.845V245.186Z" fill="black"/>
<mask id="path-98-inside-8_331_1117" fill="white">
<path d="M270.199 131.825H261.406V119H270.199V131.825ZM262.278 130.979H269.354V119.873H262.278V130.979Z"/>
</mask>
<path d="M270.199 131.825V132.825H271.199V131.825H270.199ZM261.406 131.825H260.406V132.825H261.406V131.825ZM261.406 119V118H260.406V119H261.406ZM270.199 119H271.199V118H270.199V119ZM262.278 130.979H261.278V131.979H262.278V130.979ZM269.354 130.979V131.979H270.354V130.979H269.354ZM269.354 119.873H270.354V118.873H269.354V119.873ZM262.278 119.873V118.873H261.278V119.873H262.278ZM270.199 130.825H261.406V132.825H270.199V130.825ZM262.406 131.825V119H260.406V131.825H262.406ZM261.406 120H270.199V118H261.406V120ZM269.199 119V131.825H271.199V119H269.199ZM262.278 131.979H269.354V129.979H262.278V131.979ZM270.354 130.979V119.873H268.354V130.979H270.354ZM269.354 118.873H262.278V120.873H269.354V118.873ZM261.278 119.873V130.979H263.278V119.873H261.278Z" fill="black" mask="url(#path-98-inside-8_331_1117)"/>
<path d="M262.278 131.825H127V119H262.278V131.825ZM127.845 130.979H261.406V119.873H127.845V130.979Z" fill="black"/>
<path d="M136.057 127.991C137.472 127.991 138.619 126.842 138.619 125.426C138.619 124.009 137.472 122.861 136.057 122.861C134.643 122.861 133.496 124.009 133.496 125.426C133.496 126.842 134.643 127.991 136.057 127.991Z" fill="white"/>
<path d="M136.057 128.414C134.42 128.414 133.073 127.065 133.073 125.426C133.073 123.786 134.42 122.438 136.057 122.438C137.694 122.438 139.041 123.786 139.041 125.426C139.041 127.065 137.721 128.414 136.057 128.414ZM136.057 123.31C134.895 123.31 133.945 124.262 133.945 125.426C133.945 126.589 134.895 127.541 136.057 127.541C137.219 127.541 138.17 126.589 138.17 125.426C138.17 124.262 137.246 123.31 136.057 123.31Z" fill="black"/>
<path d="M142.923 127.991C144.337 127.991 145.484 126.842 145.484 125.426C145.484 124.009 144.337 122.861 142.923 122.861C141.508 122.861 140.361 124.009 140.361 125.426C140.361 126.842 141.508 127.991 142.923 127.991Z" fill="white"/>
<path d="M142.923 128.414C141.286 128.414 139.939 127.065 139.939 125.426C139.939 123.786 141.286 122.438 142.923 122.438C144.56 122.438 145.907 123.786 145.907 125.426C145.907 127.065 144.586 128.414 142.923 128.414ZM142.923 123.31C141.761 123.31 140.81 124.262 140.81 125.426C140.81 126.589 141.761 127.541 142.923 127.541C144.085 127.541 145.035 126.589 145.035 125.426C145.035 124.262 144.111 123.31 142.923 123.31Z" fill="black"/>
<path d="M149.788 127.991C151.203 127.991 152.35 126.842 152.35 125.426C152.35 124.009 151.203 122.861 149.788 122.861C148.374 122.861 147.227 124.009 147.227 125.426C147.227 126.842 148.374 127.991 149.788 127.991Z" fill="white"/>
<path d="M149.788 128.414C148.151 128.414 146.804 127.065 146.804 125.426C146.804 123.786 148.151 122.438 149.788 122.438C151.426 122.438 152.772 123.786 152.772 125.426C152.772 127.065 151.452 128.414 149.788 128.414ZM149.788 123.31C148.626 123.31 147.676 124.262 147.676 125.426C147.676 126.589 148.626 127.541 149.788 127.541C150.95 127.541 151.901 126.589 151.901 125.426C151.901 124.262 150.977 123.31 149.788 123.31Z" fill="black"/>
<path d="M151.55 188.478L178.467 199.694V208.678L139.224 191.917V184.117L178.467 167.485V176.548L151.553 187.554L150.432 188.012L151.55 188.478Z" stroke="black"/>
<path d="M197.71 153.929H205.341L189.35 218.296H181.719L197.71 153.929Z" stroke="black"/>
<path d="M235.508 187.687L208.593 176.55V167.487L247.835 184.248V192.048L208.593 208.68V199.695L235.508 188.611L236.628 188.15L235.508 187.687Z" stroke="black"/>
</svg>
