<svg width="128" height="109" viewBox="0 0 128 109" fill="none" xmlns="http://www.w3.org/2000/svg">
<path d="M124.855 36.8021C124.855 56.3384 107.909 64.2526 107.909 64.2526L117.109 85.6428L90.9644 70.6197C90.9644 70.6197 84.6089 71.479 81.2808 71.479C57.2153 71.479 37.7064 55.9536 37.7064 36.8021C37.7064 17.6505 57.2153 2.12512 81.2808 2.12512C105.347 2.12512 124.855 17.2658 124.855 36.8021Z" fill="#00CBF8"/>
<path d="M83.3211 78.0953L83.1879 78.0195L83.0361 78.0398L83.0964 78.4897L83.036 78.0398H83.0358L83.0351 78.0399L83.032 78.0403L83.0194 78.042L82.9694 78.0486C82.9254 78.0544 82.8603 78.0629 82.7761 78.0738C82.6079 78.0955 82.3639 78.1267 82.0611 78.164C81.4557 78.2386 80.6161 78.3381 79.6794 78.4376C77.7998 78.6372 75.5518 78.8343 74.0184 78.8343C51.6014 78.8343 33.6212 64.5146 33.6212 47.0613C33.6212 29.608 51.6014 15.2882 74.0184 15.2882C96.4384 15.2882 114.416 29.2532 114.416 47.0613C114.416 55.9931 110.512 62.2632 106.599 66.3098C104.642 68.3346 102.684 69.8004 101.217 70.7594C100.484 71.2387 99.8736 71.5908 99.4487 71.8222C99.2363 71.9379 99.0702 72.0233 98.9576 72.0795C98.9022 72.1076 98.8595 72.1283 98.8314 72.1417L98.8005 72.1564L98.7933 72.1598L98.7924 72.1604V72.1605L98.3902 72.3465L98.5663 72.7529L106.648 91.3829L83.3211 78.0953Z" stroke="#171A1A"/>
<path d="M44.9688 24.8362C22.2855 25.3748 4.11768 39.3302 4.11768 57.2355C4.11768 75.4977 20.5337 82.8958 20.5337 82.8958L11.6222 102.891L36.9499 88.8477C36.9499 88.8477 43.1064 89.6509 46.3305 89.6509C59.0001 89.6509 70.366 85.3648 78.1035 78.5777" stroke="#171A1A"/>
<path d="M46.3304 34.3521H73.5645" stroke="#171A1A" stroke-linecap="round"/>
<path d="M46.3304 42.5222H73.5645" stroke="#171A1A" stroke-linecap="round"/>
<path d="M46.3304 49.7847H101.706" stroke="#171A1A" stroke-linecap="round"/>
<path d="M46.3304 57.0471H101.706" stroke="#171A1A" stroke-linecap="round"/>
</svg>
