<svg width="295" height="295" viewBox="0 0 295 295" fill="none" xmlns="http://www.w3.org/2000/svg">
<path d="M147.5 294.5C228.686 294.5 294.5 228.686 294.5 147.5C294.5 66.3141 228.686 0.5 147.5 0.5C66.3141 0.5 0.5 66.3141 0.5 147.5C0.5 228.686 66.3141 294.5 147.5 294.5Z" stroke="#00C5F0"/>
<path d="M147.5 264.218C213.378 264.218 266.783 210.813 266.783 144.935C266.783 79.0567 213.378 25.6519 147.5 25.6519C81.6218 25.6519 28.217 79.0567 28.217 144.935C28.217 210.813 81.6218 264.218 147.5 264.218Z" fill="#00CBF8"/>
<path d="M230.526 149.584L232.139 151.225C232.453 151.545 232.892 151.712 233.339 151.682L235.635 151.526L233.994 153.139C233.674 153.453 233.507 153.892 233.537 154.339L233.693 156.635L232.08 154.994C231.766 154.674 231.327 154.507 230.88 154.537L228.584 154.693L230.225 153.08C230.545 152.766 230.712 152.327 230.682 151.88L230.526 149.584Z" stroke="#262626" stroke-width="0.5" stroke-linejoin="round"/>
<path d="M242.387 122.419L244.851 124.928C245.331 125.416 246.001 125.671 246.685 125.625L250.193 125.387L247.684 127.851C247.196 128.331 246.941 129.001 246.987 129.685L247.226 133.193L244.761 130.684C244.281 130.196 243.611 129.941 242.928 129.987L239.419 130.226L241.928 127.761C242.416 127.281 242.671 126.611 242.625 125.928L242.387 122.419Z" stroke="#262626" stroke-width="0.6" stroke-linejoin="round"/>
<path d="M53.4137 138.54L51.7348 153.053C51.6511 153.777 51.2549 154.43 50.6499 154.838L53.4137 138.54ZM53.4137 138.54L61.5864 150.65C61.5864 150.65 61.5864 150.65 61.5865 150.65C61.9946 151.255 62.6466 151.651 63.3715 151.735L77.8847 153.414L65.7746 161.586C65.1695 161.994 64.7732 162.647 64.6894 163.372C64.6894 163.372 64.6894 163.372 64.6894 163.372L63.0105 177.884L54.8378 165.775C54.8378 165.774 54.8378 165.774 54.8377 165.774C54.4296 165.169 53.7776 164.773 53.0528 164.689C53.0527 164.689 53.0527 164.689 53.0527 164.689L38.5395 163.011M53.4137 138.54L38.5395 163.011M38.5395 163.011L50.6496 154.838L38.5395 163.011Z" stroke="black"/>
<path d="M85.6983 50.9753L85.7458 50.9402L88.0963 50H93.5525L94.0031 54.0552L94.0519 54.4944L94.4937 54.5L180.772 55.5846H180.779C183.358 55.5846 187.041 55.5898 190.287 56.8593C193.487 58.1108 196.27 60.5926 197.091 65.6308C197.091 65.6328 197.092 65.6348 197.092 65.6369L222.963 253.886C223.462 258.895 222.282 261.991 219.755 263.758C217.171 265.563 213.044 266.089 207.39 265.575L207.367 265.573H207.345H108.802C103.924 265.573 99.4719 261.614 98.8817 256.73L98.8813 256.727L74.5618 64.3098C74.5617 64.309 74.5616 64.3083 74.5615 64.3075C74.2785 61.8765 74.9876 59.71 76.3654 58.1316C76.4177 58.073 76.5937 57.9158 76.9066 57.6588C77.2072 57.4119 77.6034 57.0975 78.0634 56.7387C78.9828 56.0216 80.1484 55.1342 81.295 54.2689C82.4412 53.4038 83.5669 52.562 84.4062 51.9363C84.8258 51.6235 85.1737 51.3648 85.4167 51.1843L85.6983 50.9753Z" stroke="black"/>
<path d="M82.0047 58.7648L82.0046 58.7635C81.3798 53.9263 84.7863 50.0444 89.6154 50.0444H188.179C193.059 50.0444 197.532 54.0042 198.143 58.8896V58.8904L223.212 256.874V256.875C223.837 261.713 220.43 265.594 215.601 265.594H117.016C112.136 265.594 107.663 261.635 107.052 256.749V256.748L82.0047 58.7648ZM223.708 256.811L198.639 58.8276C197.997 53.694 193.313 49.5444 188.179 49.5444H89.6154C84.4819 49.5444 80.8456 53.694 81.5087 58.8276L106.556 256.811C107.198 261.945 111.882 266.094 117.016 266.094H215.601C220.735 266.094 224.371 261.945 223.708 256.811Z" stroke="black"/>
<path d="M111.587 253.433L111.587 253.433C112.005 256.759 115.068 259.477 118.385 259.477H212.671C215.938 259.477 218.255 256.836 217.843 253.559L111.587 253.433ZM111.587 253.433L109.882 239.986H216.123L217.843 253.558L111.587 253.433Z" stroke="black"/>
<path d="M198.96 247.122C199.045 247.806 198.575 248.362 197.89 248.362C197.206 248.362 196.585 247.806 196.5 247.122C196.414 246.437 196.885 245.881 197.569 245.881C198.254 245.881 198.874 246.437 198.96 247.122Z" fill="black"/>
<path d="M203.323 247.122C203.409 247.806 202.938 248.362 202.254 248.362C201.569 248.362 200.949 247.806 200.863 247.122C200.778 246.437 201.248 245.881 201.933 245.881C202.596 245.881 203.238 246.437 203.323 247.122Z" fill="black"/>
<path d="M207.665 247.122C207.751 247.806 207.28 248.362 206.596 248.362C205.911 248.362 205.291 247.806 205.206 247.122C205.12 246.437 205.591 245.881 206.275 245.881C206.96 245.881 207.58 246.437 207.665 247.122Z" fill="black"/>
<path d="M183.174 246.095L176.244 246.052" stroke="black" stroke-width="0.7" stroke-miterlimit="10" stroke-linecap="round" stroke-linejoin="round"/>
<path d="M182.704 247.571L176.864 247.549" stroke="black" stroke-width="0.7" stroke-miterlimit="10" stroke-linecap="round" stroke-linejoin="round"/>
<path d="M175.41 244.555L183.645 244.598L182.49 248.319C182.34 248.833 181.869 249.154 181.313 249.154L177.42 249.132C176.821 249.132 176.244 248.747 175.987 248.17L173.763 243.229C173.506 242.651 172.928 242.266 172.33 242.266H171.688" stroke="black" stroke-width="0.7" stroke-miterlimit="10" stroke-linecap="round" stroke-linejoin="round"/>
<path d="M178.618 250.779C178.661 251.143 178.404 251.442 178.041 251.442C177.677 251.442 177.335 251.143 177.292 250.779C177.249 250.416 177.506 250.116 177.87 250.116C178.233 250.116 178.575 250.416 178.618 250.779Z" stroke="black" stroke-width="0.7" stroke-miterlimit="10" stroke-linecap="round" stroke-linejoin="round"/>
<path d="M181.784 250.779C181.827 251.143 181.57 251.442 181.206 251.442C180.843 251.442 180.5 251.143 180.458 250.779C180.415 250.416 180.672 250.116 181.035 250.116C181.42 250.116 181.741 250.416 181.784 250.779Z" stroke="black" stroke-width="0.7" stroke-miterlimit="10" stroke-linecap="round" stroke-linejoin="round"/>
<path d="M131.487 250.513C133.137 248.756 132.854 245.811 130.856 243.936C128.858 242.06 125.901 241.964 124.251 243.721C122.602 245.478 122.885 248.423 124.883 250.298C126.881 252.174 129.838 252.27 131.487 250.513Z" stroke="black" stroke-width="0.7" stroke-miterlimit="10" stroke-linecap="round" stroke-linejoin="round"/>
<path d="M129.186 246.159C129.293 246.95 128.737 247.592 127.946 247.592C127.154 247.592 126.427 246.95 126.342 246.159C126.235 245.368 126.791 244.726 127.582 244.726C128.352 244.726 129.079 245.368 129.186 246.159Z" stroke="black" stroke-width="0.7" stroke-miterlimit="10" stroke-linecap="round" stroke-linejoin="round"/>
<path d="M125.935 250.052C125.764 248.79 126.662 247.763 127.946 247.763C129.229 247.763 130.363 248.79 130.534 250.052" stroke="black" stroke-width="0.7" stroke-miterlimit="10" stroke-linecap="round" stroke-linejoin="round"/>
<path d="M153.143 251.293C156.544 249.111 158.063 247.314 156.972 244.961C156.33 243.55 153.464 242.181 152.352 245.09" stroke="black" stroke-width="0.7" stroke-miterlimit="10" stroke-linecap="round" stroke-linejoin="round"/>
<path d="M153.143 251.293C149.186 249.111 147.218 247.314 147.71 244.961C147.988 243.55 150.512 242.181 152.373 245.09" stroke="black" stroke-width="0.7" stroke-miterlimit="10" stroke-linecap="round" stroke-linejoin="round"/>
<path opacity="0.2" d="M210.35 194.473H184.222C182.147 194.473 180.238 192.782 179.97 190.697C179.97 190.697 179.97 190.697 179.97 190.697L167.371 91.1705L167.371 91.1697C167.11 89.1336 168.528 87.5195 170.554 87.5195H196.829L210.35 194.473Z" stroke="black"/>
<path opacity="0.2" d="M171.128 190.845L171.128 190.845C171.389 192.881 169.971 194.496 167.945 194.496H109.465C107.388 194.496 105.461 192.782 105.213 190.722L105.213 190.719L92.614 91.1925L92.6139 91.1916C92.3525 89.1556 93.7705 87.5415 95.7971 87.5415H154.277C156.352 87.5415 158.262 89.233 158.529 91.3189L171.128 190.845Z" stroke="black"/>
<path opacity="0.2" d="M143.625 256.918H186.875" stroke="#FBFBFB" stroke-width="2.40826" stroke-miterlimit="10" stroke-linecap="round"/>
<path opacity="0.2" d="M108.207 209.734L108.207 209.733C107.882 207.228 109.662 205.206 112.16 205.206C112.16 205.206 112.16 205.206 112.16 205.206L201.591 205.249H201.591C203.949 205.249 205.96 207.008 206.25 209.366L206.25 209.37L208.859 229.389C209.206 232.066 207.127 234.451 204.414 234.451H115.989C113.444 234.451 111.085 232.354 110.753 229.796C110.753 229.796 110.753 229.796 110.753 229.796L108.207 209.734Z" stroke="black"/>
<path d="M180.672 69.6938C179.944 71.0199 178.212 71.3835 176.757 70.5066C175.324 69.6296 174.725 67.8328 175.452 66.5067C176.18 65.1805 177.912 64.8169 179.367 65.7153C180.8 66.5709 181.377 68.3676 180.672 69.6938Z" stroke="white" stroke-width="1.08672" stroke-miterlimit="10" stroke-linecap="round" stroke-linejoin="round"/>
<path d="M180.886 69.1377L184.586 71.4905C184.885 71.6831 185.014 72.0681 184.864 72.3461C184.714 72.6242 184.351 72.7098 184.03 72.5173L180.308 70.1858" stroke="white" stroke-width="1.08672" stroke-miterlimit="10" stroke-linecap="round" stroke-linejoin="round"/>
<path d="M96.1179 65.5229H103.947" stroke="white" stroke-width="1.63008" stroke-linejoin="round"/>
<path d="M96.5458 68.8379H104.374" stroke="white" stroke-width="1.63008" stroke-linejoin="round"/>
<path d="M96.952 72.1538H104.781" stroke="white" stroke-width="1.63008" stroke-linejoin="round"/>
<path d="M184.5 75.426H120.459C117.508 75.426 114.599 72.8593 114.235 69.9289L113.893 67.191C113.572 64.7312 115.219 62.8916 117.679 62.8916H181.698C184.65 62.8916 187.559 65.4584 187.923 68.3888L188.265 71.1267C188.586 73.5865 186.96 75.426 184.5 75.426Z" stroke="white" stroke-width="1.63008" stroke-linejoin="round"/>
<path opacity="0.2" d="M178.606 74.0147L179.355 79.8969C179.825 83.5973 181.087 86.5704 183.119 88.8164C185.173 91.0623 187.996 92.6879 191.59 93.6718L192.274 90.2709C188.06 88.9661 185.579 85.6079 184.831 80.1963L184.061 74.1216C183.483 69.6084 181.451 66.4855 177.943 64.7101C181.002 62.9562 182.264 59.8547 181.686 55.3842L180.938 49.4165C180.232 43.8765 181.857 40.4328 185.793 39.1066L184.232 35.7056C180.831 36.711 178.414 38.3152 176.98 40.5397C175.547 42.7429 175.034 45.6519 175.44 49.2667L176.21 55.4056C176.809 60.1755 175.034 62.5498 170.863 62.5498L171.398 66.8277C175.612 66.8491 178.007 69.2234 178.606 74.0147Z" fill="black"/>
<path d="M216.162 161.922L216.163 161.925C216.575 165.183 214.298 167.801 211.033 167.801H121.752C118.454 167.801 115.395 165.102 114.998 161.802L99.0622 29.3786L99.0618 29.3756C98.6497 26.1179 100.926 23.5 104.191 23.5H193.451C196.769 23.5 199.808 26.1767 200.227 29.499C200.227 29.4995 200.227 29.5001 200.227 29.5007L216.162 161.922Z" stroke="black"/>
<path d="M145.195 58.5498H168.681" stroke="#EBEBEB" stroke-width="2.71681" stroke-miterlimit="10" stroke-linejoin="round"/>
<path d="M135.549 58.5498H144.04" stroke="#EBEBEB" stroke-width="2.71681" stroke-miterlimit="10" stroke-linejoin="round"/>
<path d="M123.998 58.5498H134.394" stroke="#EBEBEB" stroke-width="2.71681" stroke-miterlimit="10" stroke-linejoin="round"/>
<path d="M119.399 58.5498H122.843" stroke="#EBEBEB" stroke-width="2.71681" stroke-miterlimit="10" stroke-linejoin="round"/>
<path d="M120.34 67.0845H139.72" stroke="#EBEBEB" stroke-width="2.71681" stroke-miterlimit="10" stroke-linejoin="round"/>
<path d="M121.303 75.5972H196.852" stroke="#EBEBEB" stroke-width="2.71681" stroke-miterlimit="10" stroke-linejoin="round"/>
<path d="M133.987 87.3833H139.377" stroke="#EBEBEB" stroke-width="2.71681" stroke-miterlimit="10" stroke-linejoin="round"/>
<path d="M122.608 87.3833H132.832" stroke="#EBEBEB" stroke-width="2.71681" stroke-miterlimit="10" stroke-linejoin="round"/>
<path d="M129.174 94.9126H140.746" stroke="#EBEBEB" stroke-width="2.71681" stroke-miterlimit="10" stroke-linejoin="round"/>
<path d="M123.442 94.9126H128.041" stroke="#EBEBEB" stroke-width="2.71681" stroke-miterlimit="10" stroke-linejoin="round"/>
<path d="M135.484 117.521H151.976" stroke="#EBEBEB" stroke-width="2.71681" stroke-miterlimit="10" stroke-linejoin="round"/>
<path d="M125.945 117.521H134.329" stroke="#EBEBEB" stroke-width="2.71681" stroke-miterlimit="10" stroke-linejoin="round"/>
<path d="M137.816 127.575H159.398" stroke="#EBEBEB" stroke-width="2.71681" stroke-miterlimit="10" stroke-linejoin="round"/>
<path d="M129.431 127.575H135.506" stroke="#EBEBEB" stroke-width="2.71681" stroke-miterlimit="10" stroke-linejoin="round"/>
<path d="M133.709 135.104H146.928" stroke="#EBEBEB" stroke-width="2.71681" stroke-miterlimit="10" stroke-linejoin="round"/>
<path d="M131.099 142.633H137.196" stroke="#EBEBEB" stroke-width="2.71681" stroke-miterlimit="10" stroke-linejoin="round"/>
<path d="M131.934 150.162H147.227" stroke="#EBEBEB" stroke-width="2.71681" stroke-miterlimit="10" stroke-linejoin="round"/>
<path d="M142.757 94.9126H159.527" stroke="#EBEBEB" stroke-width="2.71681" stroke-miterlimit="10" stroke-linejoin="round"/>
<path d="M162.97 94.9126H200.851" stroke="#EBEBEB" stroke-width="2.71681" stroke-miterlimit="10" stroke-linejoin="round"/>
<path d="M130.009 102.442H138.137" stroke="#EBEBEB" stroke-width="2.71681" stroke-miterlimit="10" stroke-linejoin="round"/>
<path d="M124.276 102.442H128.875" stroke="#EBEBEB" stroke-width="2.71681" stroke-miterlimit="10" stroke-linejoin="round"/>
<path d="M140.147 102.442H163.804" stroke="#EBEBEB" stroke-width="2.71681" stroke-miterlimit="10" stroke-linejoin="round"/>
<path d="M167.248 102.442H189.087" stroke="#EBEBEB" stroke-width="2.71681" stroke-miterlimit="10" stroke-linejoin="round"/>
<path d="M130.843 109.971H142.436" stroke="#EBEBEB" stroke-width="2.71681" stroke-miterlimit="10" stroke-linejoin="round"/>
<path d="M125.11 109.971H129.709" stroke="#EBEBEB" stroke-width="2.71681" stroke-miterlimit="10" stroke-linejoin="round"/>
<path d="M144.425 109.971H155.462" stroke="#EBEBEB" stroke-width="2.71681" stroke-miterlimit="10" stroke-linejoin="round"/>
<path d="M158.906 109.971H202.52" stroke="#EBEBEB" stroke-width="2.71681" stroke-miterlimit="10" stroke-linejoin="round"/>
<path d="M118.266 50.2504L116.768 49.5873L119.399 38.5288L120.897 39.1919L118.266 50.2504ZM114.587 47.3414L109.239 44.5607L113.838 41.5234L112.769 40.2186L107.229 43.8976C107.036 44.026 106.951 44.2826 107.015 44.5393C107.079 44.796 107.271 45.0527 107.549 45.181L114.18 48.6034L114.587 47.3414ZM130.33 45.2238C130.543 45.1168 130.629 44.8815 130.586 44.6249C130.543 44.3682 130.372 44.1115 130.116 43.9618L124.062 40.2828L123.506 41.502L128.362 44.4538L123.185 47.3414L124.169 48.6889L130.33 45.2238Z" fill="black"/>
<path d="M107.742 30.8075C107.828 31.492 107.357 32.0481 106.672 32.0481C105.988 32.0481 105.368 31.492 105.282 30.8075C105.197 30.123 105.667 29.5669 106.352 29.5669C107.036 29.5883 107.656 30.1444 107.742 30.8075Z" fill="white"/>
<path d="M111.809 31.6986C112.245 31.2335 112.173 30.4566 111.648 29.9635C111.122 29.4703 110.343 29.4475 109.906 29.9126C109.469 30.3777 109.541 31.1546 110.067 31.6477C110.592 32.1409 111.372 32.1637 111.809 31.6986Z" fill="white"/>
<path d="M116.448 30.8075C116.533 31.492 116.063 32.0481 115.378 32.0481C114.694 32.0481 114.073 31.492 113.988 30.8075C113.902 30.123 114.373 29.5669 115.057 29.5669C115.742 29.5883 116.362 30.1444 116.448 30.8075Z" fill="white"/>
<path d="M201.416 90.9918L201.937 88.5725C199.936 87.8683 198.317 86.6904 197.096 85.0387C195.793 83.2748 194.963 80.9966 194.581 78.2327L194.58 78.2271L193.81 72.1533C193.81 72.1532 193.81 72.1532 193.81 72.1531C193.25 67.7952 191.297 64.8118 187.963 63.1242L187.136 62.7055L187.94 62.2443C189.377 61.4201 190.373 60.2909 190.952 58.8477C191.534 57.3956 191.707 55.5935 191.436 53.4144L201.416 90.9918ZM201.416 90.9918C198.118 90.0171 195.553 88.4836 193.693 86.4274L193.691 86.4255C191.723 84.2729 190.514 81.4042 190.054 77.7803V77.7802L189.305 71.8992C189.305 71.8991 189.305 71.899 189.305 71.8989C188.997 69.4386 188.22 67.5261 186.919 66.2277C185.698 65.0098 184.069 64.3843 182.086 64.3044L181.673 61.003C183.574 60.902 185.042 60.2754 185.971 59.0339C186.975 57.6921 187.258 55.7488 186.952 53.3112L186.183 47.1755C185.785 43.6531 186.276 40.875 187.645 38.7813L187.646 38.7784C188.938 36.7731 191.101 35.2674 194.205 34.2799L195.359 36.7926C193.544 37.5237 192.218 38.7335 191.418 40.4279C190.553 42.2619 190.328 44.6139 190.687 47.4466V47.4473L191.436 53.4138L201.416 90.9918ZM227.996 88.4982C229.752 87.7933 231.058 86.6428 231.874 85.0406C232.761 83.297 233.043 81.0678 232.77 78.3915L232.769 78.3803L231.956 71.8778V71.8769C231.675 69.6591 231.879 67.8491 232.526 66.4095C233.168 64.9788 234.266 63.8718 235.854 63.083L236.825 62.6005L235.827 62.1753C232.25 60.6509 230.162 57.7179 229.603 53.2684L228.855 47.2796V47.2784C228.494 44.4511 227.676 42.1187 226.371 40.3135C225.146 38.6193 223.507 37.4126 221.471 36.6962L221.962 34.2593C225.255 35.2323 227.799 36.7445 229.659 38.7604C231.608 40.8949 232.836 43.7016 233.296 47.2771L234.087 53.4794C234.087 53.4795 234.087 53.4795 234.087 53.4796C234.395 55.8978 235.167 57.7837 236.464 59.0658C237.68 60.268 239.303 60.8871 241.285 60.9662L241.697 64.2676C239.796 64.3695 238.327 65.0017 237.399 66.2482C236.395 67.5949 236.112 69.5428 236.418 71.9807L237.167 77.9484V77.9492C237.628 81.5761 237.116 84.3928 235.708 86.4837C234.353 88.4966 232.184 90.0021 229.161 90.97L227.996 88.4982Z" stroke="black"/>
<path d="M124.872 185.802L119.417 182.273C119.203 182.123 119.054 181.909 119.011 181.652C118.968 181.396 119.054 181.182 119.246 181.032L123.866 177.267L124.936 178.508L121.086 181.652L125.577 184.561L124.872 185.802Z" fill="black"/>
<path d="M148.464 185.823L147.502 184.518L151.823 181.609L147.095 178.508L147.823 177.267L153.577 181.032C153.812 181.182 153.962 181.417 153.983 181.674C154.004 181.93 153.897 182.166 153.705 182.294L148.464 185.823Z" fill="black"/>
<path d="M128.294 181.567C128.144 180.454 128.294 179.577 128.743 178.893C129.171 178.23 129.834 177.888 130.668 177.888C131.502 177.888 132.208 178.166 132.786 178.743L132.315 175H133.556L134.839 185.224H133.706L133.556 184.454C133.149 185.053 132.486 185.353 131.609 185.353C130.775 185.353 130.048 185.01 129.449 184.326C128.829 183.642 128.465 182.743 128.315 181.652L128.294 181.567ZM129.556 181.716C129.663 182.529 129.898 183.171 130.305 183.642C130.69 184.112 131.203 184.326 131.78 184.326C132.55 184.326 133.085 183.984 133.363 183.278L132.936 179.962C132.486 179.278 131.866 178.936 131.117 178.936C130.518 178.936 130.069 179.171 129.791 179.642C129.513 180.112 129.428 180.797 129.556 181.716Z" fill="black"/>
<path d="M135.588 176.134C135.566 175.941 135.609 175.77 135.716 175.62C135.823 175.492 135.994 175.406 136.23 175.406C136.465 175.406 136.657 175.471 136.807 175.62C136.957 175.749 137.042 175.92 137.064 176.134C137.085 176.326 137.042 176.497 136.935 176.626C136.828 176.754 136.657 176.818 136.422 176.818C136.187 176.818 135.994 176.754 135.845 176.626C135.695 176.497 135.631 176.326 135.588 176.134ZM138.069 185.224H136.828L135.909 178.037H137.149L138.069 185.224Z" fill="black"/>
<path d="M142.219 183.556L143.309 178.037H144.571L142.882 185.224H141.941L138.433 178.037H139.695L142.219 183.556Z" fill="black"/>
<path d="M182.824 217.973L159.234 205.769L159.231 205.768C158.388 205.337 157.763 204.552 157.565 203.742C157.369 202.942 157.628 202.281 158.142 201.949L158.146 201.946L177.961 188.827L181.176 192.775L164.931 203.529L164.222 203.999L164.977 204.39L184.081 214.288L182.824 217.973ZM219.477 189.028L241.009 202.106H241.01C241.822 202.597 242.384 203.398 242.507 204.194C242.63 204.983 242.333 205.596 241.793 205.906C241.792 205.906 241.792 205.907 241.791 205.907L219.764 218.161L216.768 214.095L235.095 203.891L235.846 203.473L235.111 203.027L217.847 192.542L219.477 189.028ZM207.04 184.666L197.734 223.912L193.19 221.942L202.496 182.696L207.04 184.666Z" stroke="black"/>
</svg>
