<svg width="122" height="30" viewBox="0 0 122 30" fill="none" xmlns="http://www.w3.org/2000/svg">
<path fill-rule="evenodd" clip-rule="evenodd" d="M10 0H0V10C0 12.7614 2.23858 15 5 15H15V5C15 2.23858 12.7614 0 10 0ZM9 3H3V9C3 10.6569 4.34315 12 6 12H12V6C12 4.34315 10.6569 3 9 3Z" fill="#00CBF8"/>
<path d="M23.156 14V1.93H25.944V14H23.156ZM86.833 14V1.93H89.621V14H86.833ZM104.187 4.378H100.515V14H97.7266V4.378H94.0376V1.93H104.187V4.378Z" fill="white"/>
<path d="M31.3127 14V1.93H34.1007V11.552H39.9487V14H31.3127ZM48.8403 14.102C47.945 14.102 47.129 13.9263 46.3923 13.575C45.6557 13.2237 45.0267 12.7647 44.5053 12.198C43.984 11.62 43.576 10.9627 43.2813 10.226C42.998 9.48933 42.8563 8.73 42.8563 7.948C42.8563 7.15467 43.0037 6.38967 43.2983 5.653C43.6043 4.91633 44.0237 4.27033 44.5563 3.715C45.1003 3.14833 45.7407 2.70067 46.4773 2.372C47.214 2.032 48.0187 1.862 48.8913 1.862C49.7867 1.862 50.6027 2.03767 51.3393 2.389C52.076 2.74033 52.705 3.205 53.2263 3.783C53.7477 4.361 54.15 5.01833 54.4333 5.755C54.7167 6.49167 54.8583 7.23967 54.8583 7.999C54.8583 8.79233 54.7053 9.55733 54.3993 10.294C54.1047 11.0307 53.691 11.6823 53.1583 12.249C52.6257 12.8043 51.991 13.252 51.2543 13.592C50.5177 13.932 49.713 14.102 48.8403 14.102ZM45.6953 7.982C45.6953 8.44667 45.7633 8.9 45.8993 9.342C46.0353 9.77267 46.2337 10.158 46.4943 10.498C46.7663 10.838 47.1007 11.11 47.4973 11.314C47.894 11.518 48.3473 11.62 48.8573 11.62C49.39 11.62 49.8547 11.5123 50.2513 11.297C50.648 11.0817 50.9767 10.804 51.2373 10.464C51.498 10.1127 51.6907 9.72167 51.8153 9.291C51.9513 8.849 52.0193 8.40133 52.0193 7.948C52.0193 7.48333 51.9513 7.03567 51.8153 6.605C51.6793 6.163 51.4753 5.77767 51.2033 5.449C50.9313 5.109 50.597 4.84267 50.2003 4.65C49.815 4.446 49.3673 4.344 48.8573 4.344C48.3247 4.344 47.86 4.45167 47.4633 4.667C47.078 4.871 46.7493 5.143 46.4773 5.483C46.2167 5.823 46.0183 6.214 45.8823 6.656C45.7577 7.08667 45.6953 7.52867 45.6953 7.982ZM60.8321 1.93L63.6711 10.498L66.4761 1.93H69.4171L64.8441 14H62.4981L57.8741 1.93H60.8321ZM82.0792 11.552V14H73.5962V1.93H81.9262V4.378H76.3842V6.724H81.1442V8.985H76.3842V11.552H82.0792Z" fill="#00CBF8"/>
<path d="M25.6 29.12C25.144 29.12 24.724 29.036 24.34 28.868C23.964 28.692 23.636 28.456 23.356 28.16C23.076 27.856 22.856 27.508 22.696 27.116C22.544 26.724 22.468 26.304 22.468 25.856C22.468 25.416 22.544 25.004 22.696 24.62C22.856 24.228 23.072 23.888 23.344 23.6C23.624 23.304 23.956 23.072 24.34 22.904C24.724 22.728 25.14 22.64 25.588 22.64C26.044 22.64 26.46 22.728 26.836 22.904C27.22 23.072 27.548 23.304 27.82 23.6C28.092 23.896 28.304 24.236 28.456 24.62C28.608 25.004 28.684 25.412 28.684 25.844C28.684 25.908 28.684 25.972 28.684 26.036C28.684 26.1 28.68 26.144 28.672 26.168H23.32C23.344 26.504 23.42 26.816 23.548 27.104C23.684 27.384 23.856 27.628 24.064 27.836C24.272 28.044 24.508 28.208 24.772 28.328C25.044 28.44 25.332 28.496 25.636 28.496C25.836 28.496 26.036 28.468 26.236 28.412C26.436 28.356 26.62 28.28 26.788 28.184C26.956 28.088 27.108 27.972 27.244 27.836C27.38 27.692 27.484 27.536 27.556 27.368L28.264 27.56C28.168 27.792 28.032 28.004 27.856 28.196C27.68 28.38 27.476 28.544 27.244 28.688C27.012 28.824 26.756 28.928 26.476 29C26.196 29.08 25.904 29.12 25.6 29.12ZM27.904 25.544C27.88 25.208 27.8 24.904 27.664 24.632C27.536 24.352 27.368 24.112 27.16 23.912C26.96 23.712 26.724 23.556 26.452 23.444C26.188 23.332 25.904 23.276 25.6 23.276C25.296 23.276 25.008 23.332 24.736 23.444C24.464 23.556 24.224 23.712 24.016 23.912C23.816 24.112 23.652 24.352 23.524 24.632C23.404 24.912 23.332 25.216 23.308 25.544H27.904ZM35.391 29.12C34.959 29.12 34.559 29.032 34.191 28.856C33.823 28.672 33.507 28.432 33.243 28.136C32.979 27.84 32.771 27.5 32.619 27.116C32.475 26.724 32.403 26.316 32.403 25.892C32.403 25.452 32.475 25.036 32.619 24.644C32.763 24.244 32.959 23.896 33.207 23.6C33.463 23.304 33.763 23.072 34.107 22.904C34.459 22.728 34.843 22.64 35.259 22.64C35.787 22.64 36.255 22.78 36.663 23.06C37.071 23.332 37.391 23.664 37.623 24.056V20.24H38.439V27.944C38.439 28.168 38.535 28.28 38.727 28.28V29C38.607 29.024 38.511 29.036 38.439 29.036C38.247 29.036 38.079 28.976 37.935 28.856C37.791 28.728 37.719 28.576 37.719 28.4V27.788C37.471 28.196 37.135 28.52 36.711 28.76C36.287 29 35.847 29.12 35.391 29.12ZM35.571 28.4C35.771 28.4 35.983 28.36 36.207 28.28C36.439 28.2 36.655 28.092 36.855 27.956C37.055 27.812 37.223 27.648 37.359 27.464C37.503 27.272 37.591 27.068 37.623 26.852V24.92C37.543 24.704 37.427 24.504 37.275 24.32C37.123 24.128 36.947 23.96 36.747 23.816C36.555 23.672 36.347 23.56 36.123 23.48C35.899 23.4 35.679 23.36 35.463 23.36C35.127 23.36 34.823 23.432 34.551 23.576C34.279 23.72 34.043 23.912 33.843 24.152C33.651 24.384 33.503 24.652 33.399 24.956C33.295 25.26 33.243 25.572 33.243 25.892C33.243 26.228 33.303 26.548 33.423 26.852C33.543 27.156 33.707 27.424 33.915 27.656C34.123 27.88 34.367 28.06 34.647 28.196C34.935 28.332 35.243 28.4 35.571 28.4ZM45.1238 29.12C44.4438 29.12 43.9358 28.896 43.5998 28.448C43.2718 27.992 43.1078 27.316 43.1078 26.42V22.748H43.9238V26.276C43.9238 27.692 44.4078 28.4 45.3758 28.4C45.6158 28.4 45.8518 28.36 46.0838 28.28C46.3158 28.2 46.5278 28.084 46.7198 27.932C46.9198 27.78 47.0958 27.6 47.2478 27.392C47.4078 27.184 47.5358 26.948 47.6318 26.684V22.748H48.4478V27.944C48.4478 28.168 48.5438 28.28 48.7358 28.28V29C48.6398 29.016 48.5598 29.024 48.4958 29.024C48.4398 29.024 48.3998 29.024 48.3758 29.024C48.1838 29.016 48.0278 28.948 47.9078 28.82C47.7878 28.692 47.7278 28.52 47.7278 28.304V27.584C47.4558 28.072 47.0838 28.452 46.6118 28.724C46.1478 28.988 45.6518 29.12 45.1238 29.12ZM52.7408 25.856C52.7408 25.416 52.8168 25 52.9688 24.608C53.1208 24.216 53.3328 23.876 53.6048 23.588C53.8848 23.292 54.2168 23.06 54.6008 22.892C54.9848 22.724 55.4088 22.64 55.8728 22.64C56.4648 22.64 56.9808 22.776 57.4208 23.048C57.8608 23.312 58.1928 23.672 58.4168 24.128L57.6248 24.38C57.4488 24.06 57.2008 23.812 56.8808 23.636C56.5688 23.452 56.2208 23.36 55.8368 23.36C55.5168 23.36 55.2168 23.424 54.9368 23.552C54.6648 23.68 54.4248 23.856 54.2168 24.08C54.0168 24.296 53.8568 24.556 53.7368 24.86C53.6248 25.164 53.5688 25.496 53.5688 25.856C53.5688 26.208 53.6288 26.54 53.7488 26.852C53.8688 27.164 54.0328 27.436 54.2408 27.668C54.4488 27.892 54.6888 28.072 54.9608 28.208C55.2408 28.336 55.5368 28.4 55.8488 28.4C56.0488 28.4 56.2448 28.372 56.4368 28.316C56.6368 28.26 56.8208 28.184 56.9888 28.088C57.1568 27.984 57.3008 27.868 57.4208 27.74C57.5408 27.612 57.6248 27.476 57.6728 27.332L58.4768 27.572C58.3888 27.796 58.2608 28.004 58.0928 28.196C57.9248 28.38 57.7248 28.544 57.4928 28.688C57.2688 28.824 57.0168 28.928 56.7368 29C56.4648 29.08 56.1808 29.12 55.8848 29.12C55.4288 29.12 55.0088 29.036 54.6248 28.868C54.2408 28.692 53.9088 28.456 53.6288 28.16C53.3488 27.856 53.1288 27.508 52.9688 27.116C52.8168 26.724 52.7408 26.304 52.7408 25.856ZM64.2108 29.12C63.9148 29.12 63.6388 29.072 63.3828 28.976C63.1348 28.872 62.9148 28.732 62.7228 28.556C62.5388 28.38 62.3948 28.176 62.2908 27.944C62.1868 27.704 62.1348 27.448 62.1348 27.176C62.1348 26.904 62.1988 26.652 62.3268 26.42C62.4548 26.188 62.6348 25.988 62.8668 25.82C63.0988 25.652 63.3748 25.524 63.6948 25.436C64.0148 25.34 64.3668 25.292 64.7508 25.292C65.0708 25.292 65.3948 25.32 65.7228 25.376C66.0508 25.432 66.3428 25.512 66.5988 25.616V25.052C66.5988 24.5 66.4428 24.064 66.1308 23.744C65.8188 23.416 65.3868 23.252 64.8348 23.252C64.5148 23.252 64.1868 23.316 63.8508 23.444C63.5148 23.572 63.1748 23.756 62.8308 23.996L62.5428 23.456C63.3508 22.912 64.1348 22.64 64.8948 22.64C65.6788 22.64 66.2948 22.86 66.7428 23.3C67.1908 23.74 67.4148 24.348 67.4148 25.124V27.944C67.4148 28.168 67.5148 28.28 67.7148 28.28V29C67.5788 29.024 67.4748 29.036 67.4028 29.036C67.1948 29.036 67.0308 28.984 66.9108 28.88C66.7988 28.776 66.7388 28.632 66.7308 28.448L66.7068 27.956C66.4188 28.332 66.0548 28.62 65.6148 28.82C65.1828 29.02 64.7148 29.12 64.2108 29.12ZM64.4028 28.496C64.8268 28.496 65.2148 28.416 65.5668 28.256C65.9268 28.096 66.1988 27.884 66.3828 27.62C66.4548 27.548 66.5068 27.472 66.5388 27.392C66.5788 27.304 66.5988 27.224 66.5988 27.152V26.132C66.3268 26.028 66.0428 25.948 65.7468 25.892C65.4588 25.836 65.1628 25.808 64.8588 25.808C64.2828 25.808 63.8148 25.928 63.4548 26.168C63.0948 26.408 62.9148 26.724 62.9148 27.116C62.9148 27.308 62.9508 27.488 63.0228 27.656C63.1028 27.824 63.2068 27.972 63.3348 28.1C63.4708 28.22 63.6308 28.316 63.8148 28.388C63.9988 28.46 64.1948 28.496 64.4028 28.496ZM75.0109 28.7C74.9629 28.724 74.8909 28.756 74.7949 28.796C74.7069 28.836 74.6029 28.876 74.4829 28.916C74.3629 28.956 74.2269 28.992 74.0749 29.024C73.9229 29.056 73.7629 29.072 73.5949 29.072C73.4189 29.072 73.2509 29.048 73.0909 29C72.9309 28.952 72.7909 28.88 72.6709 28.784C72.5509 28.68 72.4549 28.552 72.3829 28.4C72.3109 28.248 72.2749 28.072 72.2749 27.872V23.396H71.4109V22.748H72.2749V20.636H73.0909V22.748H74.5309V23.396H73.0909V27.644C73.1069 27.876 73.1869 28.048 73.3309 28.16C73.4829 28.264 73.6549 28.316 73.8469 28.316C74.0789 28.316 74.2829 28.28 74.4589 28.208C74.6349 28.128 74.7469 28.072 74.7949 28.04L75.0109 28.7ZM78.9105 29V22.748H79.7265V29H78.9105ZM78.9105 21.44V20.24H79.7265V21.44H78.9105ZM87.0678 29.12C86.6118 29.12 86.1957 29.036 85.8197 28.868C85.4437 28.692 85.1157 28.456 84.8357 28.16C84.5637 27.864 84.3517 27.52 84.1997 27.128C84.0477 26.736 83.9717 26.324 83.9717 25.892C83.9717 25.452 84.0477 25.036 84.1997 24.644C84.3597 24.252 84.5757 23.908 84.8477 23.612C85.1277 23.316 85.4557 23.08 85.8317 22.904C86.2077 22.728 86.6198 22.64 87.0678 22.64C87.5158 22.64 87.9277 22.728 88.3037 22.904C88.6877 23.08 89.0158 23.316 89.2878 23.612C89.5678 23.908 89.7838 24.252 89.9358 24.644C90.0958 25.036 90.1758 25.452 90.1758 25.892C90.1758 26.324 90.0998 26.736 89.9477 27.128C89.7957 27.52 89.5797 27.864 89.2997 28.16C89.0278 28.456 88.6998 28.692 88.3158 28.868C87.9397 29.036 87.5237 29.12 87.0678 29.12ZM84.7997 25.904C84.7997 26.256 84.8597 26.584 84.9797 26.888C85.0997 27.184 85.2597 27.448 85.4597 27.68C85.6677 27.904 85.9077 28.08 86.1797 28.208C86.4597 28.336 86.7558 28.4 87.0678 28.4C87.3798 28.4 87.6718 28.336 87.9437 28.208C88.2238 28.072 88.4678 27.892 88.6758 27.668C88.8838 27.436 89.0478 27.168 89.1678 26.864C89.2878 26.56 89.3478 26.232 89.3478 25.88C89.3478 25.536 89.2878 25.212 89.1678 24.908C89.0478 24.596 88.8838 24.328 88.6758 24.104C88.4678 23.872 88.2238 23.692 87.9437 23.564C87.6718 23.428 87.3798 23.36 87.0678 23.36C86.7558 23.36 86.4638 23.428 86.1917 23.564C85.9197 23.692 85.6797 23.872 85.4717 24.104C85.2637 24.336 85.0997 24.608 84.9797 24.92C84.8597 25.224 84.7997 25.552 84.7997 25.904ZM99.6765 29H98.8605V25.508C98.8605 24.764 98.7485 24.224 98.5245 23.888C98.3085 23.552 97.9725 23.384 97.5165 23.384C97.2765 23.384 97.0365 23.428 96.7965 23.516C96.5565 23.604 96.3325 23.728 96.1245 23.888C95.9245 24.048 95.7445 24.24 95.5845 24.464C95.4245 24.68 95.3085 24.916 95.2365 25.172V29H94.4205V22.748H95.1645V24.164C95.4205 23.708 95.7845 23.34 96.2565 23.06C96.7365 22.78 97.2565 22.64 97.8165 22.64C98.1605 22.64 98.4525 22.704 98.6925 22.832C98.9325 22.96 99.1245 23.14 99.2685 23.372C99.4125 23.604 99.5165 23.888 99.5805 24.224C99.6445 24.56 99.6765 24.932 99.6765 25.34V29Z" fill="white" fill-opacity="0.45"/>
</svg>
