<svg width="128" height="108" viewBox="0 0 128 108" fill="none" xmlns="http://www.w3.org/2000/svg">
<path d="M92.1134 98.4668L115.428 77.895L87.5419 74.6963L65.8286 72.1525L34.0562 91.1521L92.1134 98.4668Z" fill="#00CBF8"/>
<path d="M30.1714 40.2286V64.4063L55.7714 93.2571L80.4572 64.4063V40.2286" stroke="#171A1A" stroke-linecap="round"/>
<path d="M43.4286 58.9714V21.0286" stroke="#171A1A" stroke-linecap="round"/>
<path d="M66.7429 58.9714V21.0286" stroke="#171A1A" stroke-linecap="round"/>
<path d="M55.7714 53.9428V1.82855" stroke="#171A1A" stroke-linecap="round"/>
<path d="M64 82.7428C60.8 78.1714 50.2857 78.1714 47.0857 82.7428" stroke="#171A1A" stroke-linecap="round"/>
<path d="M80.4572 58.5143C79.0857 64.4571 69.9429 65.3714 66.7429 58.5143C62.6286 67.2 46.6286 66.7429 43.4286 58.5143C41.6 64.9143 30.6286 64 30.1714 58.5143" stroke="#171A1A" stroke-linecap="round"/>
<path d="M43.8857 79.5443L13.7143 96L71.7714 103.314L95.0857 82.7428L67.2 79.5443" stroke="#171A1A"/>
</svg>
