<svg width="295" height="295" viewBox="0 0 295 295" fill="none" xmlns="http://www.w3.org/2000/svg">
<path d="M147.5 294.5C228.686 294.5 294.5 228.686 294.5 147.5C294.5 66.3141 228.686 0.5 147.5 0.5C66.3141 0.5 0.5 66.3141 0.5 147.5C0.5 228.686 66.3141 294.5 147.5 294.5Z" stroke="#00CBF8"/>
<path d="M147.5 264.218C213.378 264.218 266.783 210.813 266.783 144.935C266.783 79.0567 213.378 25.6519 147.5 25.6519C81.6218 25.6519 28.217 79.0567 28.217 144.935C28.217 210.813 81.6218 264.218 147.5 264.218Z" fill="#00CBF8"/>
<path d="M257.214 47.0308V215.611C257.214 218.427 255.467 220.716 253.316 220.716H23.8983C21.7475 220.716 20 218.427 20 215.611V47.0308C20 44.2146 21.7475 41.9263 23.8983 41.9263H253.324C255.475 41.9263 257.214 44.2146 257.214 47.0308Z" stroke="black" stroke-width="0.500987" stroke-miterlimit="10"/>
<path d="M251.711 214.841H25.5029C24.4696 214.841 23.6378 213.752 23.6378 212.399V50.243C23.6378 48.8899 24.4696 47.8008 25.5029 47.8008H251.711C252.745 47.8008 253.576 48.8899 253.576 50.243V212.399C253.576 213.752 252.736 214.841 251.711 214.841Z" stroke="black" stroke-width="0.500987" stroke-miterlimit="10"/>
<path d="M281.88 200.177H191.735C190.023 200.177 188.628 198.78 188.628 197.063V106.723C188.628 105.006 190.023 103.609 191.735 103.609H281.88C283.593 103.609 284.987 105.006 284.987 106.723V197.063C284.987 198.78 283.593 200.177 281.88 200.177Z" stroke="black" stroke-width="0.500987" stroke-miterlimit="10"/>
<path d="M266.292 151.893C266.292 168.208 253.098 181.442 236.808 181.442C220.528 181.442 207.323 168.219 207.323 151.893C207.323 135.589 220.495 122.377 236.753 122.344V149.759H266.216C266.26 150.463 266.292 151.178 266.292 151.893Z" stroke="black" stroke-width="0.500987" stroke-miterlimit="10"/>
<path d="M273.925 141.935H244.473V114.52H244.528C260.094 114.52 272.838 126.611 273.925 141.935Z" stroke="black" stroke-width="0.500987" stroke-miterlimit="10"/>
<path d="M174.72 171.97H54.7499C53.0374 171.97 51.6433 170.573 51.6433 168.857V22.1133C51.6433 20.3971 53.0374 19 54.7499 19H174.72C176.433 19 177.827 20.3971 177.827 22.1133V168.868C177.827 170.573 176.433 171.97 174.72 171.97Z" stroke="black" stroke-width="0.500987" stroke-miterlimit="10"/>
<path d="M61.8472 161.008V28.4658H93.2739V161.008H61.8472Z" stroke="black"/>
<path d="M101.354 161.008V123.163H168.007V161.008H101.354Z" stroke="black"/>
<path d="M101.354 81.6351V28.4658H168.007V81.6351H101.354Z" stroke="black"/>
<path d="M101.354 113.945V91.04H168.007V113.945H101.354Z" stroke="black"/>
<path d="M161.046 227.67L167.274 236.899C167.601 237.383 168.122 237.7 168.702 237.767L179.762 239.046L170.533 245.274C170.049 245.601 169.732 246.122 169.665 246.702L168.386 257.762L162.158 248.533C161.831 248.049 161.31 247.732 160.73 247.665L149.67 246.386L158.899 240.158C159.383 239.831 159.7 239.31 159.767 238.73L161.046 227.67Z" fill="white"/>
<path d="M125.387 232.419L127.851 234.928C128.331 235.416 129.001 235.671 129.685 235.625L133.193 235.387L130.684 237.851C130.196 238.331 129.941 239.001 129.987 239.684L130.226 243.193L127.761 240.684C127.281 240.196 126.611 239.941 125.928 239.987L122.419 240.225L124.928 237.761C125.416 237.281 125.671 236.611 125.625 235.928L125.387 232.419Z" stroke="#262626" stroke-width="0.6" stroke-linejoin="round"/>
</svg>
