<svg width="128" height="109" viewBox="0 0 128 109" fill="none" xmlns="http://www.w3.org/2000/svg">
<path d="M124.855 15.7421H23.1815V44.0499L69.1302 59.6679L74.0184 61.1321L78.9065 59.6679L124.855 44.0499V15.7421Z" fill="#00CBF8"/>
<path d="M68.9208 73.8414L114.87 58.3483V30.2669H13.1957V58.3483L58.5532 73.8414" stroke="#171A1A" stroke-linecap="round" stroke-linejoin="round"/>
<path d="M113.054 59.3165V93.8131H15.0113V59.3165" stroke="#171A1A" stroke-linecap="round" stroke-linejoin="round"/>
<path d="M93.9901 30.2669V19.3733C93.9901 18.3706 93.1768 17.5577 92.1745 17.5577H34.983C33.9802 17.5577 33.1674 18.3706 33.1674 19.3733V30.2669" stroke="#171A1A" stroke-linecap="round" stroke-linejoin="round"/>
<path d="M66.756 67.4868H60.4014C59.3986 67.4868 58.5858 68.2996 58.5858 69.3024V79.2882C58.5858 80.2909 59.3986 81.1038 60.4014 81.1038H66.756C67.7587 81.1038 68.5716 80.2909 68.5716 79.2882V69.3024C68.5716 68.2996 67.7587 67.4868 66.756 67.4868Z" stroke="#171A1A" stroke-linecap="round" stroke-linejoin="round"/>
</svg>
